<svg width="50" height="50" viewBox="0 0 50 50" fill="none" xmlns="http://www.w3.org/2000/svg">
<rect x="0.5" y="0.5" width="49" height="49" rx="24.5" fill="white" stroke="#EFF0F0"/>
<path d="M32.2886 36.4656C30.8751 37.8261 29.3319 37.6113 27.8464 36.9669C26.2743 36.3081 24.832 36.2794 23.1734 36.9669C21.0966 37.8548 20.0004 37.597 18.7601 36.4656C11.7218 29.2621 12.7602 18.2921 20.7504 17.8911C22.6975 17.9914 24.0532 18.9509 25.1926 19.0368C26.8945 18.6931 28.5242 17.705 30.3415 17.8339C32.5193 18.0057 34.1635 18.865 35.2452 20.4117C30.7453 23.0897 31.8126 28.9757 35.9375 30.6226C35.1154 32.7708 34.0481 34.9046 32.2741 36.4799L32.2886 36.4656ZM25.0484 17.8052C24.832 14.6116 27.4425 11.9765 30.4425 11.7188C30.8607 15.4136 27.0675 18.1632 25.0484 17.8052Z" fill="#353435"/>
</svg>
