<svg width="14" height="14" viewBox="0 0 14 14" fill="none" xmlns="http://www.w3.org/2000/svg">
<path d="M4.95833 11.0827H4.66667C2.33333 11.0827 1.16667 10.4993 1.16667 7.58268V4.66602C1.16667 2.33268 2.33333 1.16602 4.66667 1.16602H9.33333C11.6667 1.16602 12.8333 2.33268 12.8333 4.66602V7.58268C12.8333 9.91602 11.6667 11.0827 9.33333 11.0827H9.04167C8.86083 11.0827 8.68583 11.1702 8.575 11.316L7.7 12.4827C7.315 12.996 6.685 12.996 6.3 12.4827L5.425 11.316C5.33167 11.1877 5.11583 11.0827 4.95833 11.0827Z" stroke="white" stroke-width="1.5" stroke-miterlimit="10" stroke-linecap="round" stroke-linejoin="round"/>
<path d="M4.08333 4.66602H9.91667" stroke="white" stroke-width="1.5" stroke-linecap="round" stroke-linejoin="round"/>
<path d="M4.08333 7.58398H7.58333" stroke="white" stroke-width="1.5" stroke-linecap="round" stroke-linejoin="round"/>
</svg>
