<svg width="24" height="24" viewBox="0 0 24 24" fill="none" xmlns="http://www.w3.org/2000/svg">
<path d="M17 22H7C6.59 22 6.25 21.66 6.25 21.25C6.25 20.84 6.59 20.5 7 20.5H17C17.41 20.5 17.75 20.84 17.75 21.25C17.75 21.66 17.41 22 17 22Z" fill="#B1124C"/>
<path d="M20.35 5.51906L16.35 8.37906C15.82 8.75906 15.06 8.52906 14.83 7.91906L12.94 2.87906C12.62 2.00906 11.39 2.00906 11.07 2.87906L9.17 7.90906C8.94 8.52906 8.19 8.75906 7.66 8.36906L3.66 5.50906C2.86 4.94906 1.8 5.73906 2.13 6.66906L6.29 18.3191C6.43 18.7191 6.81 18.9791 7.23 18.9791H16.76C17.18 18.9791 17.56 18.7091 17.7 18.3191L21.86 6.66906C22.2 5.73906 21.14 4.94906 20.35 5.51906ZM14.5 14.7491H9.5C9.09 14.7491 8.75 14.4091 8.75 13.9991C8.75 13.5891 9.09 13.2491 9.5 13.2491H14.5C14.91 13.2491 15.25 13.5891 15.25 13.9991C15.25 14.4091 14.91 14.7491 14.5 14.7491Z" fill="#B1124C"/>
</svg>
