<svg width="41" height="41" viewBox="0 0 41 41" fill="none" xmlns="http://www.w3.org/2000/svg">
<circle cx="20.5" cy="20.5" r="20.5" fill="#B1124C"/>
<path d="M24.8795 27.0042H16.1204C15.729 27.0042 15.2911 26.6967 15.1606 26.324L11.3029 15.5335C10.7531 13.9867 11.3961 13.5115 12.7192 14.4619L16.3533 17.0617C16.959 17.481 17.6486 17.2667 17.9095 16.5865L19.5495 12.2163C20.0713 10.8185 20.9379 10.8185 21.4597 12.2163L23.0997 16.5865C23.3606 17.2667 24.0502 17.481 24.6465 17.0617L28.057 14.6297C29.5106 13.586 30.2095 14.1172 29.6131 15.8038L25.8486 26.3426C25.7088 26.6967 25.2708 27.0042 24.8795 27.0042Z" stroke="white" stroke-width="1.5" stroke-linecap="round" stroke-linejoin="round"/>
<path d="M15.3749 29.8184H25.6249" stroke="white" stroke-width="1.5" stroke-linecap="round" stroke-linejoin="round"/>
<path d="M18.1704 22.3633H22.8295" stroke="white" stroke-width="1.5" stroke-linecap="round" stroke-linejoin="round"/>
</svg>
