<svg width="60" height="61" viewBox="0 0 60 61" fill="none" xmlns="http://www.w3.org/2000/svg">
<ellipse cx="30" cy="30.4998" rx="29.5" ry="29.8933" fill="white"/>
<path d="M30.1917 36.1045V38.7202" stroke="#B1124C" stroke-width="2.5" stroke-linecap="round" stroke-linejoin="round"/>
<path d="M23.8 42.9554H36.5834V41.7099C36.5834 40.3398 35.4329 39.2188 34.0267 39.2188H26.3567C24.9505 39.2188 23.8 40.3398 23.8 41.7099V42.9554V42.9554Z" stroke="#B1124C" stroke-width="2.5" stroke-miterlimit="10"/>
<path d="M22.5217 42.9551H37.8617" stroke="#B1124C" stroke-width="2.5" stroke-linecap="round" stroke-linejoin="round"/>
<path d="M29.9998 35.4817C25.0527 35.4817 21.0515 31.5831 21.0515 26.7628V23.0262C21.0515 20.2735 23.3397 18.0439 26.1648 18.0439H33.8348C36.66 18.0439 38.9482 20.2735 38.9482 23.0262V26.7628C38.9482 31.5831 34.947 35.4817 29.9998 35.4817Z" stroke="#B1124C" stroke-width="2.5" stroke-linecap="round" stroke-linejoin="round"/>
<path d="M21.6525 30.0633C20.6938 29.7643 19.8501 29.2163 19.1853 28.5686C18.0348 27.323 17.2678 25.8284 17.2678 24.0846C17.2678 22.3408 18.674 20.9707 20.4637 20.9707H21.2946C21.0389 21.5437 20.9111 22.1789 20.9111 22.839V26.5757C20.9111 27.8213 21.1795 28.9921 21.6525 30.0633Z" stroke="#B1124C" stroke-width="2.5" stroke-linecap="round" stroke-linejoin="round"/>
<path d="M38.3474 30.0633C39.3062 29.7643 40.1499 29.2163 40.8146 28.5686C41.9651 27.323 42.7321 25.8284 42.7321 24.0846C42.7321 22.3408 41.3259 20.9707 39.5363 20.9707H38.7053C38.961 21.5437 39.0888 22.1789 39.0888 22.839V26.5757C39.0888 27.8213 38.8204 28.9921 38.3474 30.0633Z" stroke="#B1124C" stroke-width="2.5" stroke-linecap="round" stroke-linejoin="round"/>
</svg>
