<svg width="24" height="24" viewBox="0 0 24 24" fill="none" xmlns="http://www.w3.org/2000/svg">
<path d="M21.7478 19.1067L22.2255 22.4521C22.316 23.0836 21.8261 23.6485 21.188 23.6485C20.6663 23.6485 20.2237 23.265 20.1501 22.7484L19.6298 19.1067M15.3112 23.4858C15.9402 23.8863 16.8007 23.5123 16.9102 22.7484L17.4301 19.1067M21.2148 16.9418H22.5893C23.1746 16.9418 23.6483 17.4155 23.6483 18.0008C23.6483 18.5854 23.1744 19.0599 22.5893 19.0599H15.5639M1.41311 11.1798C1.45249 10.0608 2.07178 9.08801 2.97937 8.55451M1.41077 14.4712V12.8206M6.19534 8.55405C7.15259 9.11726 7.76442 10.1473 7.76442 11.2942V11.8408M16.2356 11.8408V11.2942C16.2356 9.95384 17.0669 8.80485 18.2454 8.33887M21.4656 8.87049C22.1528 9.45274 22.5893 10.3228 22.5893 11.2942V14.4712" stroke="#B1124C" stroke-width="0.8" stroke-miterlimit="10" stroke-linecap="round" stroke-linejoin="round"/>
<path d="M4.58744 8.82307C6.92678 8.82307 8.82319 6.92665 8.82319 4.58731C8.82319 2.24797 6.92678 0.351562 4.58744 0.351562C2.2481 0.351562 0.351685 2.24797 0.351685 4.58731C0.351685 6.92665 2.2481 8.82307 4.58744 8.82307Z" stroke="#B1124C" stroke-width="0.8" stroke-miterlimit="10" stroke-linecap="round" stroke-linejoin="round"/>
<path d="M7.58768 1.65833H7.58721C6.70915 1.61567 5.35713 1.72022 4.38999 2.5875C4.07683 2.86831 3.90806 3.27476 3.92588 3.6948C3.96995 4.74773 3.8204 7.08235 1.71408 7.64116M15.6428 17.2947H19.7658C21.3252 17.2947 22.5894 16.0305 22.5894 14.4711H19.3464M4.3703 19.1066L3.84993 22.7483C3.77633 23.2649 3.33378 23.6484 2.81201 23.6484C2.17397 23.6484 1.68408 23.0834 1.77455 22.452L2.25226 19.1066M6.56991 19.1066L7.08981 22.7483C7.19909 23.5103 8.05817 23.8872 8.68889 23.4857M2.78529 16.9417H1.41077C0.825421 16.9417 0.351746 17.4154 0.351746 18.0007C0.351746 18.5853 0.825703 19.0597 1.41077 19.0597H8.43621" stroke="#B1124C" stroke-width="0.8" stroke-miterlimit="10" stroke-linecap="round" stroke-linejoin="round"/>
<path d="M8.31028 17.2947H4.2342C2.67478 17.2947 1.41061 16.0305 1.41061 14.4711H4.60671M15.5298 15.7146V22.9451C15.5298 23.3335 15.215 23.6483 14.8266 23.6483H9.17339C8.78503 23.6483 8.47018 23.3335 8.47018 22.9451V15.7146M14.4336 15.5296H16.5886C17.1218 15.5296 17.5839 15.2331 17.8197 14.8091M6.18033 14.8091C6.42176 15.239 6.88259 15.5296 7.4114 15.5296H12.7928M13.4017 12.7061H10.5983" stroke="#B1124C" stroke-width="0.8" stroke-miterlimit="10" stroke-linecap="round" stroke-linejoin="round"/>
<path d="M8.17695 11.7416L8.88456 13.7378L7.10917 14.5252C5.74477 15.1303 4.14532 14.5644 3.46509 13.2358L2.96994 12.2688C2.58506 11.5171 2.95035 10.5984 3.74632 10.3162C4.53798 10.0356 5.3965 10.5123 5.57675 11.3326L5.67708 11.7892C5.76784 12.2023 6.20016 12.4423 6.59883 12.301L8.17695 11.7416Z" stroke="#B1124C" stroke-width="0.8" stroke-miterlimit="10" stroke-linecap="round" stroke-linejoin="round"/>
<path d="M8.17694 11.7409L9.17502 11.3871C9.72623 11.1917 10.3315 11.4801 10.5269 12.0313C10.7223 12.5825 10.4338 13.1878 9.88262 13.3832L8.88455 13.737M15.9295 2.86914C15.6735 3.38717 15.5296 3.97035 15.5296 4.58683C15.5296 7.01071 17.7299 8.84409 20.114 8.40661" stroke="#B1124C" stroke-width="0.8" stroke-miterlimit="10" stroke-linecap="round" stroke-linejoin="round"/>
<path d="M23.6483 6.49003V8.12005C23.6483 8.50822 23.3333 8.82325 22.9451 8.82325H20.8219C20.4337 8.82325 20.1187 8.50822 20.1187 8.12005V4.45638C20.1187 3.55394 19.3874 2.82261 18.4849 2.82261H15.3388C15.0636 2.82261 14.8977 2.52211 15.0393 2.2863C15.7364 1.12743 17.0068 0.351562 18.4582 0.351562H19.6612C21.8631 0.351562 23.6483 2.13675 23.6483 4.33871V4.84923M15.823 11.7412L15.1154 13.7374L16.8908 14.5248C18.2552 15.1299 19.8547 14.5639 20.5349 13.2354L21.0301 12.2684C21.4149 11.5167 21.0497 10.5979 20.2537 10.3158C19.462 10.0351 18.6035 10.5119 18.4232 11.3322L18.3229 11.7887C18.2322 12.2019 17.7998 12.4419 17.4012 12.3006L15.823 11.7412Z" stroke="#B1124C" stroke-width="0.8" stroke-miterlimit="10" stroke-linecap="round" stroke-linejoin="round"/>
<path d="M15.823 11.7413L14.825 11.3875C14.2738 11.1921 13.6685 11.4805 13.4731 12.0317C13.2777 12.583 13.5661 13.1882 14.1174 13.3836L15.1154 13.7374M5.37573 4.23438V4.79694M7.64013 4.79337C7.83281 5.01465 8.11362 5.15576 8.42819 5.16185M18.6243 4.23438V4.79694M15.5718 5.16185C15.8864 5.15576 16.1672 5.01465 16.3599 4.79337" stroke="#B1124C" stroke-width="0.8" stroke-miterlimit="10" stroke-linecap="round" stroke-linejoin="round"/>
</svg>
