<svg width="29" height="29" viewBox="0 0 29 29" fill="none" xmlns="http://www.w3.org/2000/svg">
<path d="M21.6 8.59191C21.528 8.57991 21.444 8.57991 21.372 8.59191C19.716 8.53191 18.396 7.1759 18.396 5.4959C18.396 3.7799 19.776 2.3999 21.492 2.3999C23.208 2.3999 24.588 3.7919 24.588 5.4959C24.576 7.1759 23.256 8.53191 21.6 8.59191Z" stroke="white" stroke-width="1.5" stroke-linecap="round" stroke-linejoin="round"/>
<path d="M20.364 17.3279C22.008 17.6039 23.82 17.3159 25.092 16.4639C26.784 15.3359 26.784 13.4879 25.092 12.3599C23.808 11.5079 21.972 11.2198 20.328 11.5078" stroke="white" stroke-width="1.5" stroke-linecap="round" stroke-linejoin="round"/>
<path d="M7.164 8.59191C7.236 8.57991 7.32 8.57991 7.392 8.59191C9.048 8.53191 10.368 7.1759 10.368 5.4959C10.368 3.7799 8.988 2.3999 7.272 2.3999C5.556 2.3999 4.17599 3.7919 4.17599 5.4959C4.18799 7.1759 5.508 8.53191 7.164 8.59191Z" stroke="white" stroke-width="1.5" stroke-linecap="round" stroke-linejoin="round"/>
<path d="M8.4 17.3279C6.756 17.6039 4.944 17.3159 3.672 16.4639C1.98 15.3359 1.98 13.4879 3.672 12.3599C4.956 11.5079 6.792 11.2198 8.436 11.5078" stroke="white" stroke-width="1.5" stroke-linecap="round" stroke-linejoin="round"/>
<path d="M14.4 17.556C14.328 17.544 14.244 17.544 14.172 17.556C12.516 17.496 11.196 16.14 11.196 14.46C11.196 12.744 12.576 11.364 14.292 11.364C16.008 11.364 17.388 12.756 17.388 14.46C17.376 16.14 16.056 17.508 14.4 17.556Z" stroke="white" stroke-width="1.5" stroke-linecap="round" stroke-linejoin="round"/>
<path d="M10.908 21.3361C9.216 22.4641 9.216 24.3121 10.908 25.4401C12.828 26.7241 15.972 26.7241 17.892 25.4401C19.584 24.3121 19.584 22.4641 17.892 21.3361C15.984 20.0641 12.828 20.0641 10.908 21.3361Z" stroke="white" stroke-width="1.5" stroke-linecap="round" stroke-linejoin="round"/>
</svg>
