<svg width="83" height="83" viewBox="0 0 83 83" fill="none" xmlns="http://www.w3.org/2000/svg">
<circle cx="41.5" cy="41.5" r="41.5" fill="url(#paint0_linear_1258_21011)"/>
<path d="M37.5532 31.5348C37.4571 31.2332 37.3278 30.9631 37.1654 30.7244C37.0063 30.4825 36.8157 30.277 36.5937 30.108C36.3716 29.9356 36.118 29.8047 35.833 29.7152C35.5513 29.6257 35.2414 29.581 34.9033 29.581C34.3299 29.581 33.8129 29.7285 33.3522 30.0234C32.8915 30.3184 32.5269 30.7509 32.2584 31.321C31.9933 31.8878 31.8607 32.5821 31.8607 33.4041C31.8607 34.2294 31.9949 34.9271 32.2634 35.4972C32.5319 36.0672 32.8998 36.4998 33.3671 36.7947C33.8344 37.0897 34.3664 37.2372 34.963 37.2372C35.5165 37.2372 35.9987 37.1245 36.4097 36.8991C36.824 36.6738 37.1439 36.3556 37.3692 35.9446C37.5979 35.5303 37.7123 35.0431 37.7123 34.483L38.11 34.5575H35.1966V33.2898H39.1988V34.4482C39.1988 35.3033 39.0165 36.0457 38.6519 36.6754C38.2906 37.3018 37.7902 37.7857 37.1505 38.1271C36.5141 38.4685 35.7849 38.6392 34.963 38.6392C34.0416 38.6392 33.2329 38.4271 32.5368 38.0028C31.8441 37.5786 31.3039 36.977 30.9161 36.1982C30.5283 35.416 30.3344 34.4879 30.3344 33.4141C30.3344 32.602 30.4471 31.8729 30.6725 31.2266C30.8979 30.5803 31.2144 30.0317 31.6221 29.581C32.0331 29.1269 32.5153 28.7805 33.0688 28.5419C33.6256 28.3 34.2338 28.179 34.8934 28.179C35.4436 28.179 35.9556 28.2602 36.4296 28.4226C36.9069 28.585 37.3311 28.8153 37.7023 29.1136C38.0769 29.4119 38.3867 29.7666 38.632 30.1776C38.8773 30.5852 39.043 31.0376 39.1292 31.5348H37.5532ZM44.3208 38.6541C43.5684 38.6541 42.9204 38.4934 42.3769 38.1719C41.8366 37.8471 41.419 37.3913 41.124 36.8047C40.8324 36.2147 40.6865 35.5237 40.6865 34.7315C40.6865 33.9493 40.8324 33.2599 41.124 32.6634C41.419 32.0668 41.83 31.6011 42.357 31.2663C42.8873 30.9316 43.5071 30.7642 44.2164 30.7642C44.6472 30.7642 45.0648 30.8355 45.4692 30.978C45.8736 31.1205 46.2365 31.3442 46.558 31.6491C46.8795 31.9541 47.133 32.3501 47.3186 32.8374C47.5042 33.3213 47.597 33.9096 47.597 34.6023V35.1293H41.5267V34.0156H46.1404C46.1404 33.6245 46.0608 33.2782 45.9017 32.9766C45.7426 32.6716 45.5189 32.4313 45.2306 32.2557C44.9455 32.08 44.6108 31.9922 44.2263 31.9922C43.8087 31.9922 43.4441 32.0949 43.1325 32.3004C42.8243 32.5026 42.5857 32.7678 42.4166 33.0959C42.2509 33.4207 42.1681 33.7737 42.1681 34.1548V35.0249C42.1681 35.5353 42.2575 35.9695 42.4365 36.3274C42.6188 36.6854 42.8724 36.9588 43.1972 37.1477C43.522 37.3333 43.9015 37.4261 44.3357 37.4261C44.6174 37.4261 44.8743 37.3864 45.1063 37.3068C45.3383 37.224 45.5388 37.1013 45.7078 36.9389C45.8769 36.7765 46.0061 36.576 46.0956 36.3374L47.5026 36.5909C47.3899 37.0052 47.1877 37.3681 46.896 37.6797C46.6077 37.9879 46.2448 38.2282 45.8073 38.4006C45.3731 38.5696 44.8776 38.6541 44.3208 38.6541ZM52.811 30.8636V32.0568H48.6398V30.8636H52.811ZM49.7584 29.0341H51.2449V36.2578C51.2449 36.5462 51.288 36.7633 51.3742 36.9091C51.4604 37.0516 51.5714 37.1494 51.7073 37.2024C51.8465 37.2521 51.9973 37.277 52.1597 37.277C52.279 37.277 52.3834 37.2687 52.4729 37.2521C52.5624 37.2356 52.632 37.2223 52.6817 37.2124L52.9502 38.4403C52.864 38.4735 52.7414 38.5066 52.5823 38.5398C52.4232 38.5762 52.2243 38.5961 51.9857 38.5994C51.5946 38.6061 51.23 38.5365 50.892 38.3906C50.5539 38.2448 50.2805 38.0194 50.0716 37.7145C49.8628 37.4096 49.7584 37.0268 49.7584 36.5661V29.0341ZM23.1113 46.9929C23.0583 46.5223 22.8395 46.1577 22.4551 45.8991C22.0706 45.6373 21.5867 45.5064 21.0034 45.5064C20.5858 45.5064 20.2245 45.5727 19.9196 45.7053C19.6146 45.8345 19.3777 46.0135 19.2086 46.2422C19.0429 46.4676 18.96 46.7244 18.96 47.0128C18.96 47.2547 19.0164 47.4635 19.1291 47.6392C19.2451 47.8149 19.3959 47.9624 19.5815 48.0817C19.7704 48.1977 19.9726 48.2955 20.188 48.375C20.4035 48.4512 20.6106 48.5142 20.8095 48.5639L21.8038 48.8224C22.1286 48.902 22.4617 49.0097 22.8031 49.1456C23.1445 49.2815 23.461 49.4605 23.7527 49.6825C24.0443 49.9046 24.2797 50.1797 24.4586 50.5078C24.6409 50.8359 24.7321 51.2287 24.7321 51.6861C24.7321 52.2628 24.5829 52.7749 24.2846 53.2223C23.9896 53.6697 23.5604 54.0227 22.997 54.2812C22.4368 54.5398 21.7591 54.669 20.9636 54.669C20.2013 54.669 19.5417 54.5481 18.9849 54.3061C18.4281 54.0642 17.9922 53.7211 17.6774 53.277C17.3625 52.8295 17.1885 52.2992 17.1554 51.6861H18.6966C18.7264 52.054 18.8457 52.3606 19.0545 52.6058C19.2666 52.8478 19.5368 53.0284 19.8649 53.1477C20.1963 53.2637 20.5592 53.3217 20.9537 53.3217C21.3878 53.3217 21.774 53.2538 22.112 53.1179C22.4534 52.9787 22.7219 52.7865 22.9174 52.5412C23.113 52.2926 23.2108 52.0026 23.2108 51.6712C23.2108 51.3696 23.1246 51.1226 22.9522 50.9304C22.7832 50.7382 22.5529 50.5791 22.2612 50.4531C21.9728 50.3272 21.6464 50.2161 21.2818 50.12L20.0787 49.7919C19.2633 49.5698 18.617 49.2434 18.1397 48.8125C17.6658 48.3816 17.4288 47.8116 17.4288 47.1023C17.4288 46.5156 17.5879 46.0036 17.9061 45.5661C18.2243 45.1286 18.6551 44.7888 19.1987 44.5469C19.7422 44.3016 20.3554 44.179 21.0382 44.179C21.7276 44.179 22.3358 44.3 22.8627 44.5419C23.3931 44.7839 23.8107 45.117 24.1156 45.5412C24.4205 45.9621 24.5796 46.446 24.5929 46.9929H23.1113ZM30.0131 46.8636V48.0568H25.842V46.8636H30.0131ZM26.9606 45.0341H28.4471V52.2578C28.4471 52.5462 28.4902 52.7633 28.5763 52.9091C28.6625 53.0516 28.7736 53.1494 28.9094 53.2024C29.0487 53.2521 29.1995 53.277 29.3619 53.277C29.4812 53.277 29.5856 53.2687 29.6751 53.2521C29.7646 53.2356 29.8342 53.2223 29.8839 53.2124L30.1523 54.4403C30.0662 54.4735 29.9435 54.5066 29.7844 54.5398C29.6254 54.5762 29.4265 54.5961 29.1879 54.5994C28.7968 54.6061 28.4322 54.5365 28.0941 54.3906C27.756 54.2448 27.4826 54.0194 27.2738 53.7145C27.065 53.4096 26.9606 53.0268 26.9606 52.5661V45.0341ZM33.8798 54.669C33.3959 54.669 32.9584 54.5795 32.5673 54.4006C32.1762 54.2183 31.8663 53.9548 31.6376 53.6101C31.4122 53.2654 31.2995 52.8428 31.2995 52.3423C31.2995 51.9115 31.3824 51.5568 31.5481 51.2784C31.7138 51 31.9376 50.7796 32.2193 50.6172C32.501 50.4548 32.8159 50.3321 33.1639 50.2493C33.5119 50.1664 33.8665 50.1035 34.2278 50.0604C34.6852 50.0073 35.0564 49.9643 35.3414 49.9311C35.6265 49.8946 35.8336 49.8366 35.9629 49.7571C36.0922 49.6776 36.1568 49.5483 36.1568 49.3693V49.3345C36.1568 48.9003 36.0342 48.5639 35.7889 48.3253C35.5469 48.0866 35.1857 47.9673 34.7051 47.9673C34.2046 47.9673 33.8102 48.0784 33.5218 48.3004C33.2368 48.5192 33.0396 48.7628 32.9302 49.0312L31.5332 48.7131C31.6989 48.2491 31.9409 47.8745 32.2591 47.5895C32.5806 47.3011 32.9501 47.0923 33.3677 46.9631C33.7853 46.8305 34.2245 46.7642 34.6852 46.7642C34.9901 46.7642 35.3133 46.8007 35.6547 46.8736C35.9993 46.9432 36.3208 47.0724 36.6191 47.2614C36.9208 47.4503 37.1677 47.7204 37.3599 48.0717C37.5521 48.4197 37.6483 48.8722 37.6483 49.429V54.5H36.1966V53.456H36.1369C36.0408 53.6482 35.8966 53.8371 35.7044 54.0227C35.5121 54.2083 35.2652 54.3625 34.9636 54.4851C34.662 54.6077 34.3007 54.669 33.8798 54.669ZM34.2029 53.4759C34.6139 53.4759 34.9653 53.3946 35.2569 53.2322C35.5519 53.0698 35.7756 52.8577 35.9281 52.5959C36.0839 52.3307 36.1618 52.0473 36.1618 51.7457V50.7614C36.1087 50.8144 36.006 50.8641 35.8535 50.9105C35.7044 50.9536 35.5337 50.9917 35.3414 51.0249C35.1492 51.0547 34.9619 51.0829 34.7797 51.1094C34.5974 51.1326 34.4449 51.1525 34.3223 51.169C34.0339 51.2055 33.7704 51.2668 33.5318 51.353C33.2965 51.4392 33.1075 51.5634 32.965 51.7259C32.8258 51.8849 32.7562 52.0971 32.7562 52.3622C32.7562 52.7301 32.8921 53.0085 33.1639 53.1974C33.4357 53.383 33.782 53.4759 34.2029 53.4759ZM39.6282 54.5V46.8636H41.065V48.0767H41.1445C41.2837 47.6657 41.529 47.3426 41.8803 47.1072C42.235 46.8686 42.636 46.7493 43.0835 46.7493C43.1763 46.7493 43.2856 46.7526 43.4116 46.7592C43.5408 46.7659 43.6419 46.7741 43.7148 46.7841V48.206C43.6552 48.1894 43.5491 48.1712 43.3967 48.1513C43.2442 48.1281 43.0917 48.1165 42.9393 48.1165C42.588 48.1165 42.2747 48.1911 41.9996 48.3402C41.7279 48.486 41.5124 48.6899 41.3533 48.9517C41.1942 49.2102 41.1147 49.5052 41.1147 49.8366V54.5H39.6282ZM49.017 46.8636V48.0568H44.8459V46.8636H49.017ZM45.9645 45.0341H47.451V52.2578C47.451 52.5462 47.4941 52.7633 47.5803 52.9091C47.6664 53.0516 47.7775 53.1494 47.9134 53.2024C48.0526 53.2521 48.2034 53.277 48.3658 53.277C48.4851 53.277 48.5895 53.2687 48.679 53.2521C48.7685 53.2356 48.8381 53.2223 48.8878 53.2124L49.1562 54.4403C49.0701 54.4735 48.9474 54.5066 48.7884 54.5398C48.6293 54.5762 48.4304 54.5961 48.1918 54.5994C47.8007 54.6061 47.4361 54.5365 47.098 54.3906C46.7599 54.2448 46.4865 54.0194 46.2777 53.7145C46.0689 53.4096 45.9645 53.0268 45.9645 52.5661V45.0341ZM53.8706 54.6541C53.1182 54.6541 52.4702 54.4934 51.9267 54.1719C51.3864 53.8471 50.9688 53.3913 50.6738 52.8047C50.3822 52.2147 50.2363 51.5237 50.2363 50.7315C50.2363 49.9493 50.3822 49.2599 50.6738 48.6634C50.9688 48.0668 51.3798 47.6011 51.9068 47.2663C52.4371 46.9316 53.0569 46.7642 53.7662 46.7642C54.197 46.7642 54.6146 46.8355 55.019 46.978C55.4234 47.1205 55.7863 47.3442 56.1078 47.6491C56.4293 47.9541 56.6828 48.3501 56.8684 48.8374C57.054 49.3213 57.1468 49.9096 57.1468 50.6023V51.1293H51.0765V50.0156H55.6902C55.6902 49.6245 55.6106 49.2782 55.4515 48.9766C55.2924 48.6716 55.0687 48.4313 54.7804 48.2557C54.4953 48.08 54.1606 47.9922 53.7761 47.9922C53.3585 47.9922 52.9939 48.0949 52.6824 48.3004C52.3741 48.5026 52.1355 48.7678 51.9664 49.0959C51.8007 49.4207 51.7179 49.7737 51.7179 50.1548V51.0249C51.7179 51.5353 51.8074 51.9695 51.9863 52.3274C52.1686 52.6854 52.4222 52.9588 52.747 53.1477C53.0718 53.3333 53.4513 53.4261 53.8855 53.4261C54.1672 53.4261 54.4241 53.3864 54.6561 53.3068C54.8881 53.224 55.0886 53.1013 55.2576 52.9389C55.4267 52.7765 55.5559 52.576 55.6454 52.3374L57.0524 52.5909C56.9397 53.0052 56.7375 53.3681 56.4458 53.6797C56.1575 53.9879 55.7946 54.2282 55.3571 54.4006C54.9229 54.5696 54.4274 54.6541 53.8706 54.6541ZM61.6548 54.6491C61.0384 54.6491 60.4882 54.4917 60.0043 54.1768C59.5237 53.8587 59.1458 53.4062 58.8707 52.8196C58.599 52.2296 58.4631 51.522 58.4631 50.6967C58.4631 49.8714 58.6006 49.1655 58.8757 48.5788C59.1541 47.9922 59.5353 47.5431 60.0192 47.2315C60.5031 46.92 61.0516 46.7642 61.6648 46.7642C62.1387 46.7642 62.5199 46.8438 62.8082 47.0028C63.0999 47.1586 63.3253 47.3409 63.4844 47.5497C63.6468 47.7585 63.7727 47.9425 63.8622 48.1016H63.9517V44.3182H65.4382V54.5H63.9865V53.3118H63.8622C63.7727 53.4742 63.6435 53.6598 63.4744 53.8686C63.3087 54.0774 63.08 54.2597 62.7884 54.4155C62.4967 54.5713 62.1188 54.6491 61.6548 54.6491ZM61.983 53.3814C62.4105 53.3814 62.7718 53.2687 63.0668 53.0433C63.3651 52.8146 63.5904 52.4981 63.7429 52.0938C63.8987 51.6894 63.9766 51.2187 63.9766 50.6818C63.9766 50.1515 63.9003 49.6875 63.7479 49.2898C63.5954 48.892 63.3717 48.5821 63.0767 48.3601C62.7817 48.138 62.4171 48.027 61.983 48.027C61.5355 48.027 61.1626 48.143 60.8643 48.375C60.5661 48.607 60.3407 48.9235 60.1882 49.3246C60.0391 49.7256 59.9645 50.178 59.9645 50.6818C59.9645 51.1922 60.0407 51.6513 60.1932 52.0589C60.3456 52.4666 60.571 52.7898 60.8693 53.0284C61.1709 53.2637 61.5421 53.3814 61.983 53.3814Z" fill="white"/>
<defs>
<linearGradient id="paint0_linear_1258_21011" x1="0" y1="51.8773" x2="83" y2="51.8773" gradientUnits="userSpaceOnUse">
<stop stop-color="#FF1472"/>
<stop offset="0.61" stop-color="#B1124C"/>
<stop offset="1" stop-color="#831136"/>
</linearGradient>
</defs>
</svg>
