<svg width="50" height="50" viewBox="0 0 50 50" fill="none" xmlns="http://www.w3.org/2000/svg">
<rect x="0.5" y="0.5" width="49" height="49" rx="24.5" fill="white" stroke="#EFF0F0"/>
<path d="M37.5006 25.2777C37.5006 24.2499 37.4155 23.4999 37.2313 22.7222H25.2556V27.361H32.2851C32.1434 28.5139 31.3781 30.25 29.6773 31.4166L29.6535 31.572L33.4401 34.4466L33.7024 34.4722C36.1117 32.2917 37.5006 29.0833 37.5006 25.2777Z" fill="#4285F4"/>
<path d="M25.2549 37.5C28.6987 37.5 31.5898 36.3888 33.7016 34.4721L29.6766 31.4165C28.5995 32.1526 27.1539 32.6665 25.2549 32.6665C21.8819 32.6665 19.0191 30.4859 17.9985 27.4721L17.849 27.4845L13.9117 30.4707L13.8602 30.6109C15.9577 34.6943 20.2662 37.5 25.2549 37.5Z" fill="#34A853"/>
<path d="M17.9988 27.4725C17.7296 26.6947 17.5737 25.8613 17.5737 25.0002C17.5737 24.139 17.7296 23.3057 17.9847 22.528L17.9775 22.3622L13.9909 19.3282L13.8605 19.389C12.996 21.0835 12.5 22.9863 12.5 25.0002C12.5 27.0141 12.996 28.9169 13.8605 30.6113L17.9988 27.4725Z" fill="#FBBC05"/>
<path d="M25.255 17.3333C27.6501 17.3333 29.2657 18.3472 30.187 19.1945L33.7867 15.75C31.5759 13.7361 28.6988 12.5 25.255 12.5C20.2662 12.5 15.9577 15.3056 13.8602 19.3889L17.9844 22.5278C19.0191 19.5139 21.8819 17.3333 25.255 17.3333Z" fill="#EB4335"/>
</svg>
