<svg width="124" height="124" viewBox="0 0 124 124" fill="none" xmlns="http://www.w3.org/2000/svg">
<path d="M62 10.334C33.5317 10.334 10.3334 33.5323 10.3334 62.0007C10.3334 90.469 33.5317 113.667 62 113.667C90.4684 113.667 113.667 90.469 113.667 62.0007C113.667 33.5323 90.4684 10.334 62 10.334ZM58.125 41.334C58.125 39.2157 59.8817 37.459 62 37.459C64.1184 37.459 65.875 39.2157 65.875 41.334V67.1673C65.875 69.2857 64.1184 71.0423 62 71.0423C59.8817 71.0423 58.125 69.2857 58.125 67.1673V41.334ZM66.7534 84.6307C66.495 85.3023 66.1334 85.819 65.6684 86.3356C65.1517 86.8007 64.5834 87.1623 63.9634 87.4207C63.3434 87.679 62.6717 87.834 62 87.834C61.3284 87.834 60.6567 87.679 60.0367 87.4207C59.4167 87.1623 58.8484 86.8007 58.3317 86.3356C57.8667 85.819 57.505 85.3023 57.2467 84.6307C56.9884 84.0107 56.8334 83.339 56.8334 82.6673C56.8334 81.9957 56.9884 81.324 57.2467 80.704C57.505 80.084 57.8667 79.5157 58.3317 78.999C58.8484 78.534 59.4167 78.1723 60.0367 77.914C61.2767 77.3973 62.7234 77.3973 63.9634 77.914C64.5834 78.1723 65.1517 78.534 65.6684 78.999C66.1334 79.5157 66.495 80.084 66.7534 80.704C67.0117 81.324 67.1667 81.9957 67.1667 82.6673C67.1667 83.339 67.0117 84.0107 66.7534 84.6307Z" fill="url(#paint0_linear_1376_78903)"/>
<defs>
<linearGradient id="paint0_linear_1376_78903" x1="10.3334" y1="74.9202" x2="113.667" y2="74.9202" gradientUnits="userSpaceOnUse">
<stop stop-color="#FF1472"/>
<stop offset="0.61" stop-color="#B1124C"/>
<stop offset="1" stop-color="#831136"/>
</linearGradient>
</defs>
</svg>
