<svg width="24" height="25" viewBox="0 0 24 25" fill="none" xmlns="http://www.w3.org/2000/svg">
<path d="M8.39 18.99V8.82998C8.39 8.42998 8.51 8.03998 8.73 7.70998L11.46 3.64998C11.89 2.99998 12.96 2.53998 13.87 2.87998C14.85 3.20998 15.5 4.30997 15.29 5.28997L14.77 8.55998C14.73 8.85998 14.81 9.12998 14.98 9.33998C15.15 9.52998 15.4 9.64997 15.67 9.64997H19.78C20.57 9.64997 21.25 9.96997 21.65 10.53C22.03 11.07 22.1 11.77 21.85 12.48L19.39 19.97C19.08 21.21 17.73 22.22 16.39 22.22H12.49C11.82 22.22 10.88 21.99 10.45 21.56L9.17 20.57C8.68 20.2 8.39 19.61 8.39 18.99Z" fill="white"/>
<path d="M5.21 6.87988H4.18C2.63 6.87988 2 7.47988 2 8.95988V19.0199C2 20.4999 2.63 21.0999 4.18 21.0999H5.21C6.76 21.0999 7.39 20.4999 7.39 19.0199V8.95988C7.39 7.47988 6.76 6.87988 5.21 6.87988Z" fill="white"/>
</svg>
