<svg width="14" height="14" viewBox="0 0 14 14" fill="none" xmlns="http://www.w3.org/2000/svg">
<path d="M4.36333 10.7044L6.17167 12.1044C6.405 12.3378 6.93 12.4544 7.28 12.4544H9.49667C10.1967 12.4544 10.955 11.9294 11.13 11.2294L12.53 6.9711C12.8217 6.15443 12.2967 5.45443 11.4217 5.45443H9.08833C8.73833 5.45443 8.44667 5.16277 8.505 4.75443L8.79667 2.88777C8.91333 2.36277 8.56333 1.77943 8.03833 1.60443C7.57167 1.42943 6.98833 1.66277 6.755 2.01277L4.36333 5.5711" fill="#B1124C"/>
<path d="M1.38834 10.7039V4.98724C1.38834 4.17057 1.73834 3.87891 2.555 3.87891H3.13834C3.955 3.87891 4.305 4.17057 4.305 4.98724V10.7039C4.305 11.5206 3.955 11.8122 3.13834 11.8122H2.555C1.73834 11.8122 1.38834 11.5206 1.38834 10.7039Z" fill="#B1124C"/>
</svg>
