<svg width="120" height="188" viewBox="0 0 120 188" fill="none" xmlns="http://www.w3.org/2000/svg">
<path d="M57.7795 0.0397203C27.016 1.13271 1.79984 25.7578 0.094395 56.3802C-0.402244 65.3297 1.07829 73.8775 4.12372 81.6499L4.1987 81.762C6.46638 87.5165 14.2158 100.025 17.3362 105.042C17.5049 105.294 17.6361 105.509 17.7766 105.724C18.2358 106.462 18.545 106.957 18.6481 107.134C19.9131 109.227 21.1688 111.31 22.4525 113.412C22.668 113.748 22.8836 114.113 23.1085 114.468C23.1647 114.57 23.2209 114.683 23.2959 114.776C23.3146 114.795 23.3146 114.804 23.324 114.823C23.3521 114.879 23.399 114.935 23.4271 114.991C25.2262 117.905 27.1003 120.783 28.8432 123.744C28.862 123.763 28.862 123.772 28.862 123.791C28.9651 123.95 29.0588 124.099 29.1618 124.277C29.4148 124.688 29.6772 125.099 29.949 125.51C31.3264 127.714 32.7133 129.928 34.1095 132.124C34.2407 132.339 34.3812 132.553 34.5124 132.778C41.4654 143.838 48.4183 154.946 55.0808 166.184C56.1397 167.987 57.817 169.706 59.9254 169.762C60.9842 169.79 62.015 169.379 62.8865 168.781C64.8074 167.445 69.2022 159.196 70.4485 157.15C72.9692 153.059 75.7054 149.107 78.2729 145.062L91.4667 124.127L91.7197 123.716L92.6192 122.296L96.9672 115.393L97.0234 115.308L97.1827 115.056L97.2296 115L101.943 107.517L102.018 107.415L102.158 107.19L102.543 106.593L106.394 100.483L106.413 100.455L106.441 100.38V100.362L106.488 100.277C108.699 95.7747 111.201 91.4401 113.45 86.9654C117.685 78.5391 120 69.2066 120 59.79C120 26.0287 91.9352 -1.18406 57.8076 0.0397203H57.7795ZM61.509 88.759C61.2372 88.8898 60.9936 89.0112 60.7781 89.114C60.6656 89.1607 60.5626 89.1981 60.4689 89.2448H59.8972C59.7942 89.1981 59.7005 89.1607 59.588 89.114C59.3725 89.0112 59.1289 88.8898 58.8571 88.759C58.7259 88.6843 58.6041 88.6189 58.4542 88.5442C54.5935 86.4142 47.5844 81.2855 47.5844 81.2855C28.9182 68.207 27.0816 55.8758 28.4403 48.3089C29.3493 43.1803 32.226 38.0703 37.2299 35.4546C50.3768 28.579 60.1784 41.9004 60.1784 41.9004C60.1784 41.9004 70.5797 28.3081 83.1456 35.4546C88.0183 38.2384 91.0075 43.1803 91.9258 48.3089C93.2939 55.8758 91.4385 68.207 72.763 81.2855C72.763 81.2855 65.7632 86.4142 61.9026 88.5442C61.762 88.6189 61.6308 88.6843 61.4996 88.759H61.509Z" fill="url(#paint0_linear_1226_21591)"/>
<path d="M44.1078 78.866H44.3233C28.7119 66.6936 27.1752 55.3993 28.4402 48.2995C29.3491 43.1708 32.2259 38.0609 37.2298 35.4452C50.3767 28.5696 60.1783 41.891 60.1783 41.891C60.1783 41.891 70.5796 28.2987 83.1455 35.4452C88.0182 38.229 91.0074 43.1708 91.9257 48.2995C93.2095 55.3993 91.6539 66.6936 76.0332 78.866H76.2581C94.7556 65.0494 96.6016 52.167 95.1585 44.1424C94.1465 38.4906 90.8575 33.035 85.4881 29.9802C71.6385 22.0957 60.1876 37.08 60.1876 37.08C60.1876 37.08 49.3928 22.404 34.9153 29.9802C29.4054 32.8668 26.2287 38.4906 25.2167 44.1424C23.7924 52.167 25.6196 65.0587 44.1171 78.866H44.1078Z" fill="url(#paint1_linear_1226_21591)"/>
<path d="M106.404 100.362V100.38L106.357 100.436V100.483L102.121 107.19L101.981 107.415L101.906 107.517L97.1923 115L97.1454 115.056L96.9299 115.393L92.5819 122.296L91.6824 123.716L91.4294 124.127L78.2356 145.062C75.6681 149.107 72.9319 153.059 70.4112 157.15C69.1556 159.196 64.7702 167.445 62.8492 168.781C61.9777 169.379 60.9376 169.79 59.8881 169.762C57.7797 169.706 56.1024 167.987 55.0435 166.184C48.3717 154.946 41.4187 143.838 34.4752 132.778C34.344 132.553 34.2034 132.339 34.0722 132.124C32.423 129.508 30.7831 126.883 29.1245 124.267C29.0215 124.099 28.9278 123.94 28.8247 123.781C28.8247 123.763 28.8247 123.753 28.8059 123.735C27.063 120.783 25.1889 117.896 23.3898 114.981C23.3617 114.925 23.3148 114.869 23.2867 114.813C23.2024 114.701 23.1274 114.57 23.0712 114.458C22.8463 114.103 22.6307 113.748 22.4152 113.403C21.1315 111.301 19.8758 109.208 18.6108 107.125C18.5077 106.957 18.1985 106.462 17.7393 105.714C17.5988 105.5 17.4676 105.285 17.2989 105.032C21.7406 106.21 26.9318 111.03 60.1692 99.39C77.6547 93.2711 94.3061 93.869 106.375 100.343L106.404 100.362Z" fill="url(#paint2_linear_1226_21591)"/>
<path d="M102.515 106.583L102.13 107.181L101.99 107.405L101.915 107.508L97.2015 114.991L97.1547 115.047L96.9391 115.383L92.5912 122.287L91.6916 123.707L91.4386 124.118L78.2449 145.053C75.6774 149.098 72.9411 153.049 70.4205 157.141C69.1648 159.187 64.7794 167.436 62.8584 168.772C61.987 169.37 60.9468 169.781 59.8973 169.753C57.7889 169.697 56.1116 167.978 55.0528 166.175C48.3809 154.936 41.428 143.829 34.4844 132.768C34.3532 132.544 34.2126 132.329 34.0815 132.114C32.4322 129.499 30.7924 126.874 29.1338 124.258C29.0307 124.09 28.937 123.931 28.8339 123.772C28.8339 123.753 28.834 123.744 28.8152 123.725C27.0723 120.773 25.1982 117.887 23.399 114.972C23.3709 114.916 23.3241 114.86 23.2959 114.804C23.2772 114.785 23.2772 114.776 23.2678 114.757C28.6372 115.607 38.3732 115.066 60.1785 107.424C75.846 101.94 90.8483 101.838 102.496 106.555L102.515 106.583Z" fill="url(#paint3_linear_1226_21591)"/>
<path d="M96.9953 115.299L96.939 115.383L92.5911 122.287L91.6915 123.707L91.4385 124.118L78.2448 145.053C75.6773 149.098 72.941 153.049 70.4204 157.141C69.1647 159.187 64.7793 167.436 62.8583 168.772C61.9869 169.37 60.9467 169.781 59.8972 169.753C57.7889 169.697 56.1115 167.978 55.0527 166.175C48.3808 154.936 41.4279 143.829 34.4843 132.768C34.3531 132.544 34.2125 132.329 34.0814 132.114C32.6851 129.91 31.3077 127.696 29.9208 125.5C35.993 125.099 45.2604 123.202 60.1971 117.971C73.4939 113.309 86.3128 112.543 96.9953 115.299Z" fill="url(#paint4_linear_1226_21591)"/>
<path d="M110.451 187.1H9.93331C6.88788 187.1 4.42342 184.644 4.42342 181.607C4.42342 178.571 6.88788 176.114 9.93331 176.114H110.451C113.497 176.114 115.961 178.571 115.961 181.607C115.961 184.644 113.497 187.1 110.451 187.1Z" fill="url(#paint5_linear_1226_21591)"/>
<defs>
<linearGradient id="paint0_linear_1226_21591" x1="59.9816" y1="0.861801" x2="59.9816" y2="106.107" gradientUnits="userSpaceOnUse">
<stop stop-color="#FF1472"/>
<stop offset="0.61" stop-color="#B1124C"/>
<stop offset="1" stop-color="#831136"/>
</linearGradient>
<linearGradient id="paint1_linear_1226_21591" x1="60.1876" y1="27.4112" x2="60.1876" y2="75.0078" gradientUnits="userSpaceOnUse">
<stop stop-color="#831136"/>
<stop offset="0.39" stop-color="#B1124C"/>
<stop offset="0.99" stop-color="#FF1472"/>
</linearGradient>
<linearGradient id="paint2_linear_1226_21591" x1="61.8653" y1="83.4622" x2="61.8653" y2="175.395" gradientUnits="userSpaceOnUse">
<stop stop-color="#FF1472"/>
<stop offset="0.28" stop-color="#E01363"/>
<stop offset="0.89" stop-color="#91113D"/>
<stop offset="1" stop-color="#831136"/>
</linearGradient>
<linearGradient id="paint3_linear_1226_21591" x1="62.8959" y1="64.1714" x2="62.8959" y2="153.021" gradientUnits="userSpaceOnUse">
<stop stop-color="#FF1472"/>
<stop offset="0.28" stop-color="#E01363"/>
<stop offset="0.89" stop-color="#91113D"/>
<stop offset="1" stop-color="#831136"/>
</linearGradient>
<linearGradient id="paint4_linear_1226_21591" x1="63.458" y1="25.8605" x2="63.458" y2="170.556" gradientUnits="userSpaceOnUse">
<stop stop-color="#FF1472"/>
<stop offset="0.13" stop-color="#E81367"/>
<stop offset="0.4" stop-color="#BC1252"/>
<stop offset="0.65" stop-color="#9D1142"/>
<stop offset="0.86" stop-color="#891139"/>
<stop offset="1" stop-color="#831136"/>
</linearGradient>
<linearGradient id="paint5_linear_1226_21591" x1="60.197" y1="175.872" x2="60.197" y2="200.796" gradientUnits="userSpaceOnUse">
<stop stop-color="#FF1472"/>
<stop offset="0.61" stop-color="#B1124C"/>
<stop offset="1" stop-color="#831136"/>
</linearGradient>
</defs>
</svg>
