<svg width="29" height="29" viewBox="0 0 29 29" fill="none" xmlns="http://www.w3.org/2000/svg">
<path d="M23.832 9.70796C23.832 10.212 23.796 10.704 23.736 11.172C23.184 10.932 22.584 10.8 21.948 10.8C20.484 10.8 19.188 11.508 18.384 12.588C17.568 11.508 16.272 10.8 14.808 10.8C12.348 10.8 10.356 12.804 10.356 15.288C10.356 18.504 12.06 20.9639 13.956 22.6319C13.896 22.6679 13.836 22.68 13.776 22.704C13.416 22.836 12.816 22.836 12.456 22.704C9.348 21.636 2.39999 17.22 2.39999 9.70796C2.39999 6.39596 5.06398 3.71997 8.35198 3.71997C10.308 3.71997 12.036 4.65596 13.116 6.10796C14.208 4.65596 15.936 3.71997 17.88 3.71997C21.168 3.71997 23.832 6.39596 23.832 9.70796Z" stroke="white" stroke-width="1.5" stroke-linecap="round" stroke-linejoin="round"/>
<path d="M26.4 15.288C26.4 20.904 21.204 24.216 18.876 25.008C18.6 25.104 18.156 25.104 17.88 25.008C16.884 24.672 15.36 23.868 13.956 22.632C12.06 20.964 10.356 18.504 10.356 15.288C10.356 12.804 12.348 10.8 14.808 10.8C16.272 10.8 17.568 11.508 18.384 12.588C19.188 11.508 20.484 10.8 21.948 10.8C22.584 10.8 23.184 10.932 23.736 11.172C25.308 11.868 26.4 13.44 26.4 15.288Z" stroke="white" stroke-width="1.5" stroke-linecap="round" stroke-linejoin="round"/>
</svg>
