<svg width="22" height="22" viewBox="0 0 22 22" fill="none" xmlns="http://www.w3.org/2000/svg">
<path d="M11.1999 10.8002L9.78985 12.2102C9.00985 12.9902 9.00985 14.2602 9.78985 15.0402C10.5699 15.8202 11.8399 15.8202 12.6199 15.0402L14.8399 12.8202C16.3999 11.2602 16.3999 8.73023 14.8399 7.16023C13.2799 5.60023 10.7499 5.60023 9.17987 7.16023L6.75988 9.58022C5.41988 10.9202 5.41988 13.0902 6.75988 14.4302" stroke="#B1124C" stroke-width="1.5" stroke-linecap="round" stroke-linejoin="round"/>
<path d="M8 21H14C19 21 21 19 21 14V8C21 3 19 1 14 1H8C3 1 1 3 1 8V14C1 19 3 21 8 21Z" stroke="#B1124C" stroke-width="1.5" stroke-linecap="round" stroke-linejoin="round"/>
</svg>
