<svg width="20" height="14" viewBox="0 0 20 14" fill="none" xmlns="http://www.w3.org/2000/svg">
<path d="M20 10.6111C19.9988 8.68119 19.4456 6.79279 18.4071 5.17352L17.3757 6.21713C18.1583 7.5462 18.5715 9.06431 18.5714 10.6111H20ZM18.5714 2.96569L17.5614 1.94447L11.4421 8.13173C11.0067 7.86641 10.5084 7.72493 10 7.72223C9.43492 7.72223 8.88252 7.89166 8.41267 8.2091C7.94281 8.52653 7.5766 8.97772 7.36035 9.50559C7.1441 10.0335 7.08752 10.6143 7.19776 11.1747C7.30801 11.7351 7.58012 12.2498 7.9797 12.6539C8.37928 13.0579 8.88838 13.333 9.44261 13.4445C9.99684 13.556 10.5713 13.4987 11.0934 13.2801C11.6155 13.0614 12.0617 12.6912 12.3756 12.2161C12.6896 11.741 12.8571 11.1825 12.8571 10.6111C12.8546 10.0968 12.7146 9.59276 12.4521 9.15223L18.5714 2.96569ZM10 12.0556C9.71746 12.0556 9.44126 11.9708 9.20634 11.8121C8.97141 11.6534 8.78831 11.4278 8.68018 11.1639C8.57205 10.8999 8.54376 10.6095 8.59889 10.3293C8.65401 10.0491 8.79007 9.79175 8.98986 9.58974C9.18964 9.38773 9.44419 9.25016 9.72131 9.19443C9.99842 9.1387 10.2857 9.1673 10.5467 9.27663C10.8077 9.38595 11.0308 9.57109 11.1878 9.80863C11.3448 10.0462 11.4286 10.3254 11.4286 10.6111C11.4282 10.9941 11.2776 11.3613 11.0097 11.6321C10.7419 11.9029 10.3788 12.0552 10 12.0556ZM10 1.94447C11.5295 1.94518 13.0305 2.36283 14.345 3.15347L15.3836 2.10408C13.8743 1.12271 12.1313 0.57078 10.338 0.506365C8.54471 0.44195 6.76738 0.86743 5.19303 1.73804C3.61868 2.60865 2.30549 3.8922 1.39164 5.45366C0.477791 7.01512 -0.00294416 8.79675 1.35661e-05 10.6111H1.42858C1.43123 8.3134 2.33514 6.11056 3.94202 4.48583C5.5489 2.8611 7.72754 1.94715 10 1.94447Z" fill="#202020"/>
</svg>
