<svg width="329" height="110" viewBox="0 0 329 110" fill="none" xmlns="http://www.w3.org/2000/svg">
<g filter="url(#filter0_d_1415_53276)">
<rect x="20" y="16" width="289" height="70" rx="20" fill="url(#paint0_linear_1415_53276)"/>
</g>
<circle cx="60" cy="51" r="25" transform="rotate(-180 60 51)" fill="#FFB74B"/>
<path d="M64.7 57.9794H55.3C54.88 57.9794 54.41 57.6494 54.27 57.2494L50.13 45.6694C49.54 44.0094 50.23 43.4994 51.65 44.5194L55.55 47.3094C56.2 47.7594 56.94 47.5294 57.22 46.7994L58.98 42.1094C59.54 40.6094 60.47 40.6094 61.03 42.1094L62.79 46.7994C63.07 47.5294 63.81 47.7594 64.45 47.3094L68.11 44.6994C69.67 43.5794 70.42 44.1494 69.78 45.9594L65.74 57.2694C65.59 57.6494 65.12 57.9794 64.7 57.9794Z" fill="white" stroke="white" stroke-width="1.5" stroke-linecap="round" stroke-linejoin="round"/>
<path d="M54.5 61H65.5" stroke="white" stroke-width="1.5" stroke-linecap="round" stroke-linejoin="round"/>
<path d="M57.5 53H62.5" stroke="#FFB74B" stroke-width="1.5" stroke-linecap="round" stroke-linejoin="round"/>
<path d="M112.136 45H108.011V33.3636H112.17C113.341 33.3636 114.348 33.5966 115.193 34.0625C116.038 34.5246 116.688 35.1894 117.142 36.0568C117.6 36.9242 117.83 37.9621 117.83 39.1705C117.83 40.3826 117.6 41.4242 117.142 42.2955C116.688 43.1667 116.034 43.8352 115.182 44.3011C114.333 44.767 113.318 45 112.136 45ZM110.472 42.892H112.034C112.761 42.892 113.373 42.7633 113.869 42.5057C114.369 42.2443 114.744 41.8409 114.994 41.2955C115.248 40.7462 115.375 40.0379 115.375 39.1705C115.375 38.3106 115.248 37.608 114.994 37.0625C114.744 36.517 114.371 36.1155 113.875 35.858C113.379 35.6004 112.767 35.4716 112.04 35.4716H110.472V42.892ZM123.55 45.1705C122.667 45.1705 121.904 44.983 121.26 44.608C120.62 44.2292 120.125 43.7027 119.777 43.0284C119.429 42.3504 119.254 41.5644 119.254 40.6705C119.254 39.7689 119.429 38.9811 119.777 38.3068C120.125 37.6288 120.62 37.1023 121.26 36.7273C121.904 36.3485 122.667 36.1591 123.55 36.1591C124.432 36.1591 125.194 36.3485 125.834 36.7273C126.478 37.1023 126.974 37.6288 127.322 38.3068C127.671 38.9811 127.845 39.7689 127.845 40.6705C127.845 41.5644 127.671 42.3504 127.322 43.0284C126.974 43.7027 126.478 44.2292 125.834 44.608C125.194 44.983 124.432 45.1705 123.55 45.1705ZM123.561 43.2955C123.963 43.2955 124.298 43.1818 124.567 42.9545C124.836 42.7235 125.038 42.4091 125.175 42.0114C125.315 41.6136 125.385 41.161 125.385 40.6534C125.385 40.1458 125.315 39.6932 125.175 39.2955C125.038 38.8977 124.836 38.5833 124.567 38.3523C124.298 38.1212 123.963 38.0057 123.561 38.0057C123.156 38.0057 122.815 38.1212 122.538 38.3523C122.266 38.5833 122.059 38.8977 121.919 39.2955C121.783 39.6932 121.714 40.1458 121.714 40.6534C121.714 41.161 121.783 41.6136 121.919 42.0114C122.059 42.4091 122.266 42.7235 122.538 42.9545C122.815 43.1818 123.156 43.2955 123.561 43.2955ZM135.016 41.2841V36.2727H137.436V45H135.112V43.4148H135.021C134.824 43.9261 134.497 44.3371 134.038 44.6477C133.584 44.9583 133.029 45.1136 132.374 45.1136C131.79 45.1136 131.277 44.9811 130.834 44.7159C130.391 44.4508 130.044 44.0739 129.794 43.5852C129.548 43.0966 129.423 42.5114 129.419 41.8295V36.2727H131.839V41.3977C131.843 41.9129 131.982 42.3201 132.254 42.6193C132.527 42.9186 132.893 43.0682 133.351 43.0682C133.643 43.0682 133.915 43.0019 134.169 42.8693C134.423 42.733 134.627 42.5322 134.783 42.267C134.942 42.0019 135.019 41.6742 135.016 41.2841ZM139.418 45V33.3636H141.838V37.7386H141.912C142.018 37.5038 142.171 37.2652 142.372 37.0227C142.577 36.7765 142.842 36.572 143.168 36.4091C143.497 36.2424 143.906 36.1591 144.395 36.1591C145.031 36.1591 145.618 36.3258 146.156 36.6591C146.694 36.9886 147.124 37.4867 147.446 38.1534C147.768 38.8163 147.929 39.6477 147.929 40.6477C147.929 41.6212 147.772 42.4432 147.457 43.1136C147.147 43.7803 146.723 44.286 146.185 44.6307C145.651 44.9716 145.052 45.142 144.389 45.142C143.92 45.142 143.52 45.0644 143.19 44.9091C142.865 44.7538 142.598 44.5587 142.389 44.3239C142.181 44.0852 142.022 43.8447 141.912 43.6023H141.804V45H139.418ZM141.787 40.6364C141.787 41.1553 141.859 41.608 142.003 41.9943C142.147 42.3807 142.355 42.6818 142.628 42.8977C142.901 43.1098 143.232 43.2159 143.622 43.2159C144.016 43.2159 144.349 43.108 144.622 42.892C144.895 42.6723 145.101 42.3693 145.241 41.983C145.385 41.5928 145.457 41.1439 145.457 40.6364C145.457 40.1326 145.387 39.6894 145.247 39.3068C145.107 38.9242 144.901 38.625 144.628 38.4091C144.355 38.1932 144.02 38.0852 143.622 38.0852C143.228 38.0852 142.895 38.1894 142.622 38.3977C142.353 38.6061 142.147 38.9015 142.003 39.2841C141.859 39.6667 141.787 40.1174 141.787 40.6364ZM151.964 33.3636V45H149.544V33.3636H151.964ZM157.881 45.1705C156.983 45.1705 156.21 44.9886 155.562 44.625C154.919 44.2576 154.422 43.7386 154.074 43.0682C153.725 42.3939 153.551 41.5966 153.551 40.6761C153.551 39.7784 153.725 38.9905 154.074 38.3125C154.422 37.6345 154.913 37.1061 155.545 36.7273C156.182 36.3485 156.928 36.1591 157.784 36.1591C158.36 36.1591 158.896 36.2519 159.392 36.4375C159.892 36.6193 160.328 36.8939 160.699 37.2614C161.074 37.6288 161.366 38.0909 161.574 38.6477C161.782 39.2008 161.886 39.8485 161.886 40.5909V41.2557H154.517V39.7557H159.608C159.608 39.4072 159.532 39.0985 159.381 38.8295C159.229 38.5606 159.019 38.3504 158.75 38.1989C158.485 38.0436 158.176 37.9659 157.824 37.9659C157.456 37.9659 157.131 38.0511 156.847 38.2216C156.566 38.3883 156.347 38.6136 156.188 38.8977C156.028 39.178 155.947 39.4905 155.943 39.8352V41.2614C155.943 41.6932 156.023 42.0663 156.182 42.3807C156.345 42.6951 156.574 42.9375 156.869 43.108C157.165 43.2784 157.515 43.3636 157.92 43.3636C158.189 43.3636 158.436 43.3258 158.659 43.25C158.883 43.1742 159.074 43.0606 159.233 42.9091C159.392 42.7576 159.513 42.572 159.597 42.3523L161.835 42.5C161.722 43.0379 161.489 43.5076 161.136 43.9091C160.788 44.3068 160.337 44.6174 159.784 44.8409C159.235 45.0606 158.6 45.1705 157.881 45.1705ZM171.339 45H167.214V33.3636H171.374C172.544 33.3636 173.552 33.5966 174.396 34.0625C175.241 34.5246 175.891 35.1894 176.345 36.0568C176.804 36.9242 177.033 37.9621 177.033 39.1705C177.033 40.3826 176.804 41.4242 176.345 42.2955C175.891 43.1667 175.237 43.8352 174.385 44.3011C173.536 44.767 172.521 45 171.339 45ZM169.675 42.892H171.237C171.964 42.892 172.576 42.7633 173.072 42.5057C173.572 42.2443 173.947 41.8409 174.197 41.2955C174.451 40.7462 174.578 40.0379 174.578 39.1705C174.578 38.3106 174.451 37.608 174.197 37.0625C173.947 36.517 173.574 36.1155 173.078 35.858C172.582 35.6004 171.97 35.4716 171.243 35.4716H169.675V42.892ZM181.298 45.1648C180.741 45.1648 180.245 45.0682 179.81 44.875C179.374 44.678 179.029 44.3883 178.776 44.0057C178.526 43.6193 178.401 43.1383 178.401 42.5625C178.401 42.0777 178.49 41.6705 178.668 41.3409C178.846 41.0114 179.088 40.7462 179.395 40.5455C179.702 40.3447 180.05 40.1932 180.44 40.0909C180.834 39.9886 181.247 39.9167 181.679 39.875C182.187 39.822 182.596 39.7727 182.906 39.7273C183.217 39.678 183.442 39.6061 183.582 39.5114C183.723 39.4167 183.793 39.2765 183.793 39.0909V39.0568C183.793 38.697 183.679 38.4186 183.452 38.2216C183.228 38.0246 182.91 37.9261 182.497 37.9261C182.062 37.9261 181.715 38.0227 181.457 38.2159C181.2 38.4053 181.029 38.6439 180.946 38.9318L178.707 38.75C178.821 38.2197 179.045 37.7614 179.378 37.375C179.711 36.9848 180.141 36.6856 180.668 36.4773C181.198 36.2652 181.812 36.1591 182.509 36.1591C182.993 36.1591 183.457 36.2159 183.901 36.3295C184.348 36.4432 184.743 36.6193 185.088 36.858C185.437 37.0966 185.711 37.4034 185.912 37.7784C186.113 38.1496 186.213 38.5947 186.213 39.1136V45H183.918V43.7898H183.849C183.709 44.0625 183.522 44.303 183.287 44.5114C183.052 44.7159 182.77 44.8769 182.44 44.9943C182.111 45.108 181.73 45.1648 181.298 45.1648ZM181.991 43.4943C182.348 43.4943 182.662 43.4242 182.935 43.2841C183.207 43.1402 183.421 42.947 183.577 42.7045C183.732 42.4621 183.81 42.1875 183.81 41.8807V40.9545C183.734 41.0038 183.63 41.0492 183.497 41.0909C183.368 41.1288 183.223 41.1648 183.06 41.1989C182.897 41.2292 182.734 41.2576 182.571 41.2841C182.408 41.3068 182.26 41.3277 182.128 41.3466C181.844 41.3883 181.596 41.4545 181.384 41.5455C181.171 41.6364 181.007 41.7595 180.889 41.9148C180.772 42.0663 180.713 42.2557 180.713 42.483C180.713 42.8125 180.832 43.0644 181.071 43.2386C181.313 43.4091 181.62 43.4943 181.991 43.4943ZM192.733 36.2727V38.0909H187.477V36.2727H192.733ZM188.67 34.1818H191.091V42.3182C191.091 42.5417 191.125 42.7159 191.193 42.8409C191.261 42.9621 191.356 43.0473 191.477 43.0966C191.602 43.1458 191.746 43.1705 191.909 43.1705C192.023 43.1705 192.136 43.161 192.25 43.142C192.364 43.1193 192.451 43.1023 192.511 43.0909L192.892 44.892C192.771 44.9299 192.6 44.9735 192.381 45.0227C192.161 45.0758 191.894 45.108 191.58 45.1193C190.996 45.142 190.485 45.0644 190.045 44.8864C189.61 44.7083 189.271 44.4318 189.028 44.0568C188.786 43.6818 188.667 43.2083 188.67 42.6364V34.1818ZM198.193 45.1705C197.295 45.1705 196.523 44.9886 195.875 44.625C195.231 44.2576 194.735 43.7386 194.386 43.0682C194.038 42.3939 193.864 41.5966 193.864 40.6761C193.864 39.7784 194.038 38.9905 194.386 38.3125C194.735 37.6345 195.225 37.1061 195.858 36.7273C196.494 36.3485 197.241 36.1591 198.097 36.1591C198.672 36.1591 199.208 36.2519 199.705 36.4375C200.205 36.6193 200.64 36.8939 201.011 37.2614C201.386 37.6288 201.678 38.0909 201.886 38.6477C202.095 39.2008 202.199 39.8485 202.199 40.5909V41.2557H194.83V39.7557H199.92C199.92 39.4072 199.845 39.0985 199.693 38.8295C199.542 38.5606 199.331 38.3504 199.062 38.1989C198.797 38.0436 198.489 37.9659 198.136 37.9659C197.769 37.9659 197.443 38.0511 197.159 38.2216C196.879 38.3883 196.659 38.6136 196.5 38.8977C196.341 39.178 196.259 39.4905 196.256 39.8352V41.2614C196.256 41.6932 196.335 42.0663 196.494 42.3807C196.657 42.6951 196.886 42.9375 197.182 43.108C197.477 43.2784 197.828 43.3636 198.233 43.3636C198.502 43.3636 198.748 43.3258 198.972 43.25C199.195 43.1742 199.386 43.0606 199.545 42.9091C199.705 42.7576 199.826 42.572 199.909 42.3523L202.148 42.5C202.034 43.0379 201.801 43.5076 201.449 43.9091C201.1 44.3068 200.65 44.6174 200.097 44.8409C199.547 45.0606 198.913 45.1705 198.193 45.1705ZM114.324 60.7102C114.278 60.2519 114.083 59.8958 113.739 59.642C113.394 59.3883 112.926 59.2614 112.335 59.2614C111.934 59.2614 111.595 59.3182 111.318 59.4318C111.042 59.5417 110.83 59.6951 110.682 59.892C110.538 60.089 110.466 60.3125 110.466 60.5625C110.458 60.7708 110.502 60.9527 110.597 61.108C110.695 61.2633 110.83 61.3977 111 61.5114C111.17 61.6212 111.367 61.7178 111.591 61.8011C111.814 61.8807 112.053 61.9489 112.307 62.0057L113.352 62.2557C113.86 62.3693 114.326 62.5208 114.75 62.7102C115.174 62.8996 115.542 63.1326 115.852 63.4091C116.163 63.6856 116.403 64.0114 116.574 64.3864C116.748 64.7614 116.837 65.1913 116.841 65.6761C116.837 66.3883 116.655 67.0057 116.295 67.5284C115.939 68.0473 115.424 68.4508 114.75 68.7386C114.08 69.0227 113.271 69.1648 112.324 69.1648C111.384 69.1648 110.566 69.0208 109.869 68.733C109.176 68.4451 108.634 68.0189 108.244 67.4545C107.858 66.8864 107.655 66.1837 107.636 65.3466H110.017C110.044 65.7367 110.155 66.0625 110.352 66.3239C110.553 66.5814 110.82 66.7765 111.153 66.9091C111.491 67.0379 111.871 67.1023 112.295 67.1023C112.712 67.1023 113.074 67.0417 113.381 66.9205C113.691 66.7992 113.932 66.6307 114.102 66.4148C114.273 66.1989 114.358 65.9508 114.358 65.6705C114.358 65.4091 114.28 65.1894 114.125 65.0114C113.973 64.8333 113.75 64.6818 113.455 64.5568C113.163 64.4318 112.805 64.3182 112.381 64.2159L111.114 63.8977C110.133 63.6591 109.358 63.286 108.79 62.7784C108.222 62.2708 107.939 61.5871 107.943 60.7273C107.939 60.0227 108.127 59.4072 108.506 58.8807C108.888 58.3542 109.413 57.9432 110.08 57.6477C110.746 57.3523 111.504 57.2045 112.352 57.2045C113.216 57.2045 113.97 57.3523 114.614 57.6477C115.261 57.9432 115.765 58.3542 116.125 58.8807C116.485 59.4072 116.67 60.017 116.682 60.7102H114.324ZM118.45 72.2727V60.2727H120.837V61.7386H120.945C121.051 61.5038 121.204 61.2652 121.405 61.0227C121.609 60.7765 121.875 60.572 122.2 60.4091C122.53 60.2424 122.939 60.1591 123.428 60.1591C124.064 60.1591 124.651 60.3258 125.189 60.6591C125.727 60.9886 126.157 61.4867 126.479 62.1534C126.801 62.8163 126.962 63.6477 126.962 64.6477C126.962 65.6212 126.804 66.4432 126.49 67.1136C126.179 67.7803 125.755 68.286 125.217 68.6307C124.683 68.9716 124.085 69.142 123.422 69.142C122.952 69.142 122.553 69.0644 122.223 68.9091C121.897 68.7538 121.63 68.5587 121.422 68.3239C121.214 68.0852 121.054 67.8447 120.945 67.6023H120.871V72.2727H118.45ZM120.82 64.6364C120.82 65.1553 120.892 65.608 121.036 65.9943C121.179 66.3807 121.388 66.6818 121.661 66.8977C121.933 67.1098 122.265 67.2159 122.655 67.2159C123.049 67.2159 123.382 67.108 123.655 66.892C123.928 66.6723 124.134 66.3693 124.274 65.983C124.418 65.5928 124.49 65.1439 124.49 64.6364C124.49 64.1326 124.42 63.6894 124.28 63.3068C124.14 62.9242 123.933 62.625 123.661 62.4091C123.388 62.1932 123.053 62.0852 122.655 62.0852C122.261 62.0852 121.928 62.1894 121.655 62.3977C121.386 62.6061 121.179 62.9015 121.036 63.2841C120.892 63.6667 120.82 64.1174 120.82 64.6364ZM132.553 69.1705C131.655 69.1705 130.882 68.9886 130.234 68.625C129.59 68.2576 129.094 67.7386 128.746 67.0682C128.397 66.3939 128.223 65.5966 128.223 64.6761C128.223 63.7784 128.397 62.9905 128.746 62.3125C129.094 61.6345 129.585 61.1061 130.217 60.7273C130.854 60.3485 131.6 60.1591 132.456 60.1591C133.032 60.1591 133.568 60.2519 134.064 60.4375C134.564 60.6193 135 60.8939 135.371 61.2614C135.746 61.6288 136.037 62.0909 136.246 62.6477C136.454 63.2008 136.558 63.8485 136.558 64.5909V65.2557H129.189V63.7557H134.28C134.28 63.4072 134.204 63.0985 134.053 62.8295C133.901 62.5606 133.691 62.3504 133.422 62.1989C133.157 62.0436 132.848 61.9659 132.496 61.9659C132.128 61.9659 131.803 62.0511 131.518 62.2216C131.238 62.3883 131.018 62.6136 130.859 62.8977C130.7 63.178 130.619 63.4905 130.615 63.8352V65.2614C130.615 65.6932 130.695 66.0663 130.854 66.3807C131.017 66.6951 131.246 66.9375 131.541 67.108C131.837 67.2784 132.187 67.3636 132.592 67.3636C132.861 67.3636 133.107 67.3258 133.331 67.25C133.554 67.1742 133.746 67.0606 133.905 66.9091C134.064 66.7576 134.185 66.572 134.268 66.3523L136.507 66.5C136.393 67.0379 136.161 67.5076 135.808 67.9091C135.46 68.3068 135.009 68.6174 134.456 68.8409C133.907 69.0606 133.272 69.1705 132.553 69.1705ZM142.081 69.1705C141.187 69.1705 140.418 68.9811 139.774 68.6023C139.134 68.2197 138.642 67.6894 138.297 67.0114C137.956 66.3333 137.786 65.553 137.786 64.6705C137.786 63.7765 137.958 62.9924 138.303 62.3182C138.651 61.6402 139.145 61.1117 139.786 60.733C140.426 60.3504 141.187 60.1591 142.07 60.1591C142.831 60.1591 143.498 60.2973 144.07 60.5739C144.642 60.8504 145.094 61.2386 145.428 61.7386C145.761 62.2386 145.945 62.8258 145.979 63.5H143.695C143.63 63.0644 143.46 62.714 143.183 62.4489C142.911 62.1799 142.553 62.0455 142.109 62.0455C141.734 62.0455 141.407 62.1477 141.126 62.3523C140.85 62.553 140.634 62.8466 140.479 63.233C140.323 63.6193 140.246 64.0871 140.246 64.6364C140.246 65.1932 140.321 65.6667 140.473 66.0568C140.628 66.447 140.846 66.7443 141.126 66.9489C141.407 67.1534 141.734 67.2557 142.109 67.2557C142.386 67.2557 142.634 67.1989 142.854 67.0852C143.077 66.9716 143.261 66.8068 143.405 66.5909C143.553 66.3712 143.649 66.108 143.695 65.8011H145.979C145.941 66.4678 145.759 67.0549 145.433 67.5625C145.111 68.0663 144.666 68.4602 144.098 68.7443C143.53 69.0284 142.857 69.1705 142.081 69.1705ZM147.528 69V60.2727H149.949V69H147.528ZM148.744 59.1477C148.384 59.1477 148.076 59.0284 147.818 58.7898C147.564 58.5473 147.438 58.2576 147.438 57.9205C147.438 57.5871 147.564 57.3011 147.818 57.0625C148.076 56.8201 148.384 56.6989 148.744 56.6989C149.104 56.6989 149.411 56.8201 149.665 57.0625C149.922 57.3011 150.051 57.5871 150.051 57.9205C150.051 58.2576 149.922 58.5473 149.665 58.7898C149.411 59.0284 149.104 59.1477 148.744 59.1477ZM154.376 69.1648C153.82 69.1648 153.323 69.0682 152.888 68.875C152.452 68.678 152.107 68.3883 151.854 68.0057C151.604 67.6193 151.479 67.1383 151.479 66.5625C151.479 66.0777 151.568 65.6705 151.746 65.3409C151.924 65.0114 152.166 64.7462 152.473 64.5455C152.78 64.3447 153.128 64.1932 153.518 64.0909C153.912 63.9886 154.325 63.9167 154.757 63.875C155.265 63.822 155.674 63.7727 155.984 63.7273C156.295 63.678 156.52 63.6061 156.661 63.5114C156.801 63.4167 156.871 63.2765 156.871 63.0909V63.0568C156.871 62.697 156.757 62.4186 156.53 62.2216C156.306 62.0246 155.988 61.9261 155.575 61.9261C155.14 61.9261 154.793 62.0227 154.536 62.2159C154.278 62.4053 154.107 62.6439 154.024 62.9318L151.786 62.75C151.899 62.2197 152.123 61.7614 152.456 61.375C152.789 60.9848 153.219 60.6856 153.746 60.4773C154.276 60.2652 154.89 60.1591 155.587 60.1591C156.071 60.1591 156.536 60.2159 156.979 60.3295C157.426 60.4432 157.821 60.6193 158.166 60.858C158.515 61.0966 158.789 61.4034 158.99 61.7784C159.191 62.1496 159.291 62.5947 159.291 63.1136V69H156.996V67.7898H156.928C156.787 68.0625 156.6 68.303 156.365 68.5114C156.13 68.7159 155.848 68.8769 155.518 68.9943C155.189 69.108 154.808 69.1648 154.376 69.1648ZM155.07 67.4943C155.426 67.4943 155.74 67.4242 156.013 67.2841C156.286 67.1402 156.5 66.947 156.655 66.7045C156.81 66.4621 156.888 66.1875 156.888 65.8807V64.9545C156.812 65.0038 156.708 65.0492 156.575 65.0909C156.446 65.1288 156.301 65.1648 156.138 65.1989C155.975 65.2292 155.812 65.2576 155.649 65.2841C155.486 65.3068 155.339 65.3277 155.206 65.3466C154.922 65.3883 154.674 65.4545 154.462 65.5455C154.25 65.6364 154.085 65.7595 153.967 65.9148C153.85 66.0663 153.791 66.2557 153.791 66.483C153.791 66.8125 153.911 67.0644 154.149 67.2386C154.392 67.4091 154.698 67.4943 155.07 67.4943ZM163.589 57.3636V69H161.169V57.3636H163.589ZM179.97 63.1818C179.97 64.4508 179.73 65.5303 179.249 66.4205C178.771 67.3106 178.12 67.9905 177.294 68.4602C176.472 68.9261 175.548 69.1591 174.521 69.1591C173.487 69.1591 172.559 68.9242 171.737 68.4545C170.915 67.9848 170.266 67.3049 169.788 66.4148C169.311 65.5246 169.072 64.447 169.072 63.1818C169.072 61.9129 169.311 60.8333 169.788 59.9432C170.266 59.053 170.915 58.375 171.737 57.9091C172.559 57.4394 173.487 57.2045 174.521 57.2045C175.548 57.2045 176.472 57.4394 177.294 57.9091C178.12 58.375 178.771 59.053 179.249 59.9432C179.73 60.8333 179.97 61.9129 179.97 63.1818ZM177.476 63.1818C177.476 62.3598 177.353 61.6667 177.107 61.1023C176.864 60.5379 176.521 60.1098 176.078 59.8182C175.635 59.5265 175.116 59.3807 174.521 59.3807C173.927 59.3807 173.408 59.5265 172.964 59.8182C172.521 60.1098 172.177 60.5379 171.93 61.1023C171.688 61.6667 171.567 62.3598 171.567 63.1818C171.567 64.0038 171.688 64.697 171.93 65.2614C172.177 65.8258 172.521 66.2538 172.964 66.5455C173.408 66.8371 173.927 66.983 174.521 66.983C175.116 66.983 175.635 66.8371 176.078 66.5455C176.521 66.2538 176.864 65.8258 177.107 65.2614C177.353 64.697 177.476 64.0038 177.476 63.1818ZM186.44 60.2727V62.0909H181.054V60.2727H186.44ZM182.287 69V59.642C182.287 59.0095 182.41 58.4848 182.656 58.0682C182.906 57.6515 183.247 57.339 183.679 57.1307C184.111 56.9223 184.601 56.8182 185.151 56.8182C185.522 56.8182 185.861 56.8466 186.168 56.9034C186.478 56.9602 186.709 57.0114 186.861 57.0568L186.429 58.875C186.334 58.8447 186.217 58.8163 186.077 58.7898C185.94 58.7633 185.8 58.75 185.656 58.75C185.3 58.75 185.052 58.8333 184.912 59C184.772 59.1629 184.702 59.392 184.702 59.6875V69H182.287ZM192.612 60.2727V62.0909H187.226V60.2727H192.612ZM188.459 69V59.642C188.459 59.0095 188.582 58.4848 188.828 58.0682C189.078 57.6515 189.419 57.339 189.851 57.1307C190.283 56.9223 190.773 56.8182 191.322 56.8182C191.694 56.8182 192.033 56.8466 192.339 56.9034C192.65 56.9602 192.881 57.0114 193.033 57.0568L192.601 58.875C192.506 58.8447 192.389 58.8163 192.249 58.7898C192.112 58.7633 191.972 58.75 191.828 58.75C191.472 58.75 191.224 58.8333 191.084 59C190.944 59.1629 190.874 59.392 190.874 59.6875V69H188.459ZM197.756 69.1705C196.858 69.1705 196.085 68.9886 195.438 68.625C194.794 68.2576 194.297 67.7386 193.949 67.0682C193.6 66.3939 193.426 65.5966 193.426 64.6761C193.426 63.7784 193.6 62.9905 193.949 62.3125C194.297 61.6345 194.788 61.1061 195.42 60.7273C196.057 60.3485 196.803 60.1591 197.659 60.1591C198.235 60.1591 198.771 60.2519 199.267 60.4375C199.767 60.6193 200.203 60.8939 200.574 61.2614C200.949 61.6288 201.241 62.0909 201.449 62.6477C201.657 63.2008 201.761 63.8485 201.761 64.5909V65.2557H194.392V63.7557H199.483C199.483 63.4072 199.407 63.0985 199.256 62.8295C199.104 62.5606 198.894 62.3504 198.625 62.1989C198.36 62.0436 198.051 61.9659 197.699 61.9659C197.331 61.9659 197.006 62.0511 196.722 62.2216C196.441 62.3883 196.222 62.6136 196.062 62.8977C195.903 63.178 195.822 63.4905 195.818 63.8352V65.2614C195.818 65.6932 195.898 66.0663 196.057 66.3807C196.22 66.6951 196.449 66.9375 196.744 67.108C197.04 67.2784 197.39 67.3636 197.795 67.3636C198.064 67.3636 198.311 67.3258 198.534 67.25C198.758 67.1742 198.949 67.0606 199.108 66.9091C199.267 66.7576 199.388 66.572 199.472 66.3523L201.71 66.5C201.597 67.0379 201.364 67.5076 201.011 67.9091C200.663 68.3068 200.212 68.6174 199.659 68.8409C199.11 69.0606 198.475 69.1705 197.756 69.1705ZM203.341 69V60.2727H205.688V61.7955H205.778C205.938 61.2538 206.205 60.8447 206.58 60.5682C206.955 60.2879 207.386 60.1477 207.875 60.1477C207.996 60.1477 208.127 60.1553 208.267 60.1705C208.407 60.1856 208.53 60.2064 208.636 60.233V62.3807C208.523 62.3466 208.366 62.3163 208.165 62.2898C207.964 62.2633 207.78 62.25 207.614 62.25C207.258 62.25 206.939 62.3277 206.659 62.483C206.383 62.6345 206.163 62.8466 206 63.1193C205.841 63.392 205.761 63.7064 205.761 64.0625V69H203.341ZM217.149 62.7614L214.933 62.8977C214.895 62.7083 214.814 62.5379 214.689 62.3864C214.564 62.2311 214.399 62.108 214.195 62.017C213.994 61.9223 213.753 61.875 213.473 61.875C213.098 61.875 212.782 61.9545 212.524 62.1136C212.267 62.2689 212.138 62.4773 212.138 62.7386C212.138 62.947 212.221 63.1231 212.388 63.267C212.554 63.411 212.84 63.5265 213.246 63.6136L214.825 63.9318C215.674 64.1061 216.306 64.3864 216.723 64.7727C217.14 65.1591 217.348 65.6667 217.348 66.2955C217.348 66.8674 217.179 67.3693 216.842 67.8011C216.509 68.233 216.051 68.5701 215.467 68.8125C214.888 69.0511 214.219 69.1705 213.462 69.1705C212.306 69.1705 211.386 68.9299 210.7 68.4489C210.018 67.964 209.619 67.3049 209.501 66.4716L211.882 66.3466C211.954 66.6989 212.128 66.9678 212.405 67.1534C212.681 67.3352 213.036 67.4261 213.467 67.4261C213.892 67.4261 214.232 67.3447 214.49 67.1818C214.751 67.0152 214.884 66.8011 214.888 66.5398C214.884 66.3201 214.791 66.1402 214.609 66C214.428 65.8561 214.147 65.7462 213.768 65.6705L212.257 65.3693C211.405 65.1989 210.77 64.9034 210.354 64.483C209.941 64.0625 209.734 63.5265 209.734 62.875C209.734 62.3144 209.886 61.8314 210.189 61.4261C210.496 61.0208 210.926 60.7083 211.479 60.4886C212.036 60.2689 212.687 60.1591 213.433 60.1591C214.536 60.1591 215.403 60.392 216.036 60.858C216.672 61.3239 217.043 61.9583 217.149 62.7614Z" fill="white"/>
<defs>
<filter id="filter0_d_1415_53276" x="0" y="0" width="329" height="110" filterUnits="userSpaceOnUse" color-interpolation-filters="sRGB">
<feFlood flood-opacity="0" result="BackgroundImageFix"/>
<feColorMatrix in="SourceAlpha" type="matrix" values="0 0 0 0 0 0 0 0 0 0 0 0 0 0 0 0 0 0 127 0" result="hardAlpha"/>
<feOffset dy="4"/>
<feGaussianBlur stdDeviation="10"/>
<feComposite in2="hardAlpha" operator="out"/>
<feColorMatrix type="matrix" values="0 0 0 0 0 0 0 0 0 0 0 0 0 0 0 0 0 0 0.15 0"/>
<feBlend mode="normal" in2="BackgroundImageFix" result="effect1_dropShadow_1415_53276"/>
<feBlend mode="normal" in="SourceGraphic" in2="effect1_dropShadow_1415_53276" result="shape"/>
</filter>
<linearGradient id="paint0_linear_1415_53276" x1="287.515" y1="-0.99999" x2="29.7511" y2="62.1936" gradientUnits="userSpaceOnUse">
<stop stop-color="#3A111C"/>
<stop offset="1" stop-color="#93193A"/>
</linearGradient>
</defs>
</svg>
