<svg width="84" height="85" viewBox="0 0 84 85" fill="none" xmlns="http://www.w3.org/2000/svg">
<path d="M12.1551 71.8449C16.9809 76.6707 22.9223 80.2319 29.4532 82.213C35.984 84.1941 42.9027 84.534 49.5962 83.2026C56.2898 81.8712 62.5517 78.9095 67.8273 74.5799C73.1029 70.2504 77.2293 64.6866 79.841 58.3814C82.4527 52.0761 83.4691 45.2241 82.8002 38.4323C82.1312 31.6404 79.7976 25.1184 76.006 19.4438C72.2144 13.7693 67.0818 9.11742 61.063 5.90027C55.0441 2.68312 48.3247 1 41.5 1" stroke="#B1124C" stroke-width="1.5" stroke-linecap="round"/>
<circle cx="41" cy="43" r="33" fill="white"/>
<path d="M43.43 36.43L49.5 42.5L43.43 48.57" stroke="black" stroke-width="1.5" stroke-miterlimit="10" stroke-linecap="round" stroke-linejoin="round"/>
<path d="M32.5 42.5H49.33" stroke="black" stroke-width="1.5" stroke-miterlimit="10" stroke-linecap="round" stroke-linejoin="round"/>
</svg>
