<svg width="102" height="102" viewBox="0 0 102 102" fill="none" xmlns="http://www.w3.org/2000/svg">
<circle cx="51" cy="51" r="51" fill="url(#paint0_linear_1262_22024)"/>
<path d="M29.0645 58.2168V37.2026C29.0645 34.2852 30.7535 33.5832 32.8154 35.6452L38.4967 41.3264C39.3522 42.1819 40.7561 42.1819 41.5896 41.3264L49.4425 33.4516C50.298 32.5961 51.7019 32.5961 52.5354 33.4516L60.4103 41.3264C61.2657 42.1819 62.6696 42.1819 63.5032 41.3264L69.1845 35.6452C71.2464 33.5832 72.9354 34.2852 72.9354 37.2026V58.2387C72.9354 64.8193 68.5483 69.2064 61.9677 69.2064H40.0322C33.978 69.1845 29.0645 64.271 29.0645 58.2168Z" fill="white"/>
<defs>
<linearGradient id="paint0_linear_1262_22024" x1="0" y1="63.7529" x2="102" y2="63.7529" gradientUnits="userSpaceOnUse">
<stop stop-color="#FF1472"/>
<stop offset="0.61" stop-color="#B1124C"/>
<stop offset="1" stop-color="#831136"/>
</linearGradient>
</defs>
</svg>
