<svg width="28" height="28" viewBox="0 0 28 28" fill="none" xmlns="http://www.w3.org/2000/svg">
<path d="M20.4516 9.06565C20.37 9.05398 20.2883 9.05398 20.2066 9.06565C18.3983 9.00732 16.9633 7.52565 16.9633 5.70565C16.9633 3.85065 18.4683 2.33398 20.335 2.33398C22.19 2.33398 23.7066 3.83898 23.7066 5.70565C23.695 7.52565 22.26 9.00732 20.4516 9.06565Z" fill="#93193A"/>
<path d="M24.255 17.1505C22.9483 18.0255 21.1166 18.3521 19.425 18.1305C19.8683 17.1738 20.1016 16.1121 20.1133 14.9921C20.1133 13.8255 19.8566 12.7171 19.3666 11.7488C21.0933 11.5155 22.925 11.8421 24.2433 12.7171C26.0866 13.9305 26.0866 15.9255 24.255 17.1505Z" fill="#93193A"/>
<path d="M7.5133 9.06565C7.59497 9.05398 7.67663 9.05398 7.7583 9.06565C9.56663 9.00732 11.0016 7.52565 11.0016 5.70565C11.0016 3.83898 9.49663 2.33398 7.62997 2.33398C5.77497 2.33398 4.26997 3.83898 4.26997 5.70565C4.26997 7.52565 5.70497 9.00732 7.5133 9.06565Z" fill="#93193A"/>
<path d="M7.64166 14.9924C7.64166 16.124 7.88666 17.1974 8.32999 18.1657C6.68499 18.3407 4.96999 17.9907 3.70999 17.1624C1.86666 15.9374 1.86666 13.9424 3.70999 12.7174C4.95833 11.8774 6.71999 11.539 8.37666 11.7257C7.89832 12.7057 7.64166 13.814 7.64166 14.9924Z" fill="#93193A"/>
<path d="M14.14 18.515C14.0466 18.5033 13.9416 18.5033 13.8366 18.515C11.69 18.445 9.97498 16.6833 9.97498 14.5133C9.98665 12.2967 11.7716 10.5 14 10.5C16.2167 10.5 18.0133 12.2967 18.0133 14.5133C18.0016 16.6833 16.2983 18.445 14.14 18.515Z" fill="#93193A"/>
<path d="M10.3483 20.9301C8.58665 22.1084 8.58665 24.0451 10.3483 25.2117C12.355 26.5534 15.645 26.5534 17.6517 25.2117C19.4133 24.0334 19.4133 22.0967 17.6517 20.9301C15.6567 19.5884 12.3667 19.5884 10.3483 20.9301Z" fill="#93193A"/>
</svg>
