<svg width="29" height="29" viewBox="0 0 29 29" fill="none" xmlns="http://www.w3.org/2000/svg">
<path d="M23.832 9.7082C23.832 10.2122 23.796 10.7042 23.736 11.1722C23.184 10.9322 22.584 10.8002 21.948 10.8002C20.484 10.8002 19.188 11.5082 18.384 12.5882C17.568 11.5082 16.272 10.8002 14.808 10.8002C12.348 10.8002 10.356 12.8042 10.356 15.2882C10.356 18.5042 12.06 20.9642 13.956 22.6322C13.896 22.6682 13.836 22.6802 13.776 22.7042C13.416 22.8362 12.816 22.8362 12.456 22.7042C9.348 21.6362 2.39999 17.2202 2.39999 9.7082C2.39999 6.3962 5.06398 3.72021 8.35198 3.72021C10.308 3.72021 12.036 4.6562 13.116 6.1082C14.208 4.6562 15.936 3.72021 17.88 3.72021C21.168 3.72021 23.832 6.3962 23.832 9.7082Z" fill="#93193A" stroke="#93193A" stroke-width="1.5" stroke-linecap="round" stroke-linejoin="round"/>
<path d="M26.4 15.2883C26.4 20.9043 21.204 24.2163 18.876 25.0083C18.6 25.1043 18.156 25.1043 17.88 25.0083C16.884 24.6723 15.36 23.8683 13.956 22.6323C12.06 20.9643 10.356 18.5043 10.356 15.2883C10.356 12.8043 12.348 10.8003 14.808 10.8003C16.272 10.8003 17.568 11.5083 18.384 12.5883C19.188 11.5083 20.484 10.8003 21.948 10.8003C22.584 10.8003 23.184 10.9323 23.736 11.1723C25.308 11.8683 26.4 13.4403 26.4 15.2883Z" fill="#93193A" stroke="#93193A" stroke-width="1.5" stroke-linecap="round" stroke-linejoin="round"/>
</svg>
