<svg width="28" height="28" viewBox="0 0 28 28" fill="none" xmlns="http://www.w3.org/2000/svg">
<path d="M19.8333 2.83496H8.16667C4.66667 2.83496 2.33333 5.16829 2.33333 8.66829V15.6683C2.33333 19.1683 4.66667 21.5016 8.16667 21.5016H12.8333L18.025 24.955C18.795 25.4683 19.8333 24.92 19.8333 23.9866V21.5016C23.3333 21.5016 25.6667 19.1683 25.6667 15.6683V8.66829C25.6667 5.16829 23.3333 2.83496 19.8333 2.83496ZM18.0833 13.125H9.91667C9.43833 13.125 9.04167 12.7283 9.04167 12.25C9.04167 11.7716 9.43833 11.375 9.91667 11.375H18.0833C18.5617 11.375 18.9583 11.7716 18.9583 12.25C18.9583 12.7283 18.5617 13.125 18.0833 13.125Z" fill="#93193A"/>
</svg>
