<svg width="36" height="36" viewBox="0 0 36 36" fill="none" xmlns="http://www.w3.org/2000/svg">
<rect width="36" height="36" rx="8" fill="url(#paint0_linear_1362_68934)"/>
<path fill-rule="evenodd" clip-rule="evenodd" d="M22.2496 8C21.7741 7.99984 21.3044 8.10402 20.8735 8.30519C20.4427 8.50636 20.0612 8.79962 19.7561 9.16428C19.4509 9.52894 19.2295 9.95611 19.1074 10.4157C18.9853 10.8752 18.9656 11.356 19.0496 11.824L14.3196 15.136C14.2959 15.1524 14.2732 15.1701 14.2516 15.189C13.7717 14.8139 13.1961 14.5812 12.5904 14.5174C11.9846 14.4536 11.3732 14.5613 10.8257 14.8282C10.2782 15.0952 9.81676 15.5106 9.49396 16.0271C9.17116 16.5436 9 17.1404 9 17.7495C9 18.3586 9.17116 18.9554 9.49396 19.4719C9.81676 19.9884 10.2782 20.4038 10.8257 20.6708C11.3732 20.9377 11.9846 21.0454 12.5904 20.9816C13.1961 20.9178 13.7717 20.6851 14.2516 20.31C14.2732 20.3293 14.2959 20.3473 14.3196 20.364L19.0496 23.676C18.9092 24.4588 19.0606 25.2658 19.4753 25.9444C19.8899 26.623 20.539 27.126 21.2996 27.3582C22.0602 27.5904 22.8795 27.5357 23.6024 27.2044C24.3254 26.8731 24.9018 26.2882 25.2225 25.5605C25.5432 24.8328 25.586 24.0128 25.3427 23.2557C25.0994 22.4985 24.587 21.8569 23.9024 21.4522C23.2179 21.0475 22.4087 20.9078 21.6281 21.0596C20.8474 21.2115 20.1496 21.6442 19.6666 22.276L15.1876 19.141C15.3876 18.719 15.4996 18.248 15.4996 17.75C15.4996 17.252 15.3876 16.78 15.1876 16.359L19.6676 13.223C20.0032 13.6623 20.4453 14.0087 20.952 14.2295C21.4588 14.4503 22.0135 14.5382 22.5637 14.4848C23.1139 14.4315 23.6415 14.2387 24.0964 13.9247C24.5513 13.6107 24.9186 13.1858 25.1636 12.6903C25.4086 12.1947 25.5231 11.6449 25.4964 11.0927C25.4696 10.5406 25.3025 10.0044 25.0108 9.53487C24.719 9.06532 24.3124 8.67795 23.8292 8.40937C23.346 8.1408 22.8024 7.9999 22.2496 8ZM20.4996 11.25C20.4996 10.7859 20.684 10.3408 21.0121 10.0126C21.3403 9.68437 21.7855 9.5 22.2496 9.5C22.7137 9.5 23.1588 9.68437 23.487 10.0126C23.8152 10.3408 23.9996 10.7859 23.9996 11.25C23.9996 11.7141 23.8152 12.1592 23.487 12.4874C23.1588 12.8156 22.7137 13 22.2496 13C21.7855 13 21.3403 12.8156 21.0121 12.4874C20.684 12.1592 20.4996 11.7141 20.4996 11.25ZM12.2496 16C11.7855 16 11.3403 16.1844 11.0121 16.5126C10.684 16.8408 10.4996 17.2859 10.4996 17.75C10.4996 18.2141 10.684 18.6592 11.0121 18.9874C11.3403 19.3156 11.7855 19.5 12.2496 19.5C12.7137 19.5 13.1588 19.3156 13.487 18.9874C13.8152 18.6592 13.9996 18.2141 13.9996 17.75C13.9996 17.2859 13.8152 16.8408 13.487 16.5126C13.1588 16.1844 12.7137 16 12.2496 16ZM22.2496 22.5C21.7855 22.5 21.3403 22.6844 21.0121 23.0126C20.684 23.3408 20.4996 23.7859 20.4996 24.25C20.4996 24.7141 20.684 25.1592 21.0121 25.4874C21.3403 25.8156 21.7855 26 22.2496 26C22.7137 26 23.1588 25.8156 23.487 25.4874C23.8152 25.1592 23.9996 24.7141 23.9996 24.25C23.9996 23.7859 23.8152 23.3408 23.487 23.0126C23.1588 22.6844 22.7137 22.5 22.2496 22.5Z" fill="white"/>
<defs>
<linearGradient id="paint0_linear_1362_68934" x1="0" y1="22.501" x2="36" y2="22.501" gradientUnits="userSpaceOnUse">
<stop stop-color="#FF1472"/>
<stop offset="0.61" stop-color="#B1124C"/>
<stop offset="1" stop-color="#831136"/>
</linearGradient>
</defs>
</svg>
