<svg width="36" height="36" viewBox="0 0 36 36" fill="none" xmlns="http://www.w3.org/2000/svg">
<path d="M25.2 13.5H19.125V20.16L22.23 17.055C22.455 16.83 22.74 16.725 23.025 16.725C23.31 16.725 23.595 16.83 23.82 17.055C24.255 17.49 24.255 18.21 23.82 18.645L18.795 23.67C18.36 24.105 17.64 24.105 17.205 23.67L12.18 18.645C11.745 18.21 11.745 17.49 12.18 17.055C12.615 16.62 13.335 16.62 13.77 17.055L16.875 20.16V13.5H10.8C6 13.5 3 16.5 3 21.3V25.185C3 30 6 33 10.8 33H25.185C29.985 33 32.985 30 32.985 25.2V21.3C33 16.5 30 13.5 25.2 13.5Z" fill="#B1124C"/>
<path d="M19.125 4.125C19.125 3.51 18.615 3 18 3C17.385 3 16.875 3.51 16.875 4.125V13.5H19.125V4.125Z" fill="#B1124C"/>
</svg>
