<svg width="51" height="17" viewBox="0 0 51 17" fill="none" xmlns="http://www.w3.org/2000/svg">
<path d="M47.5704 1.06625H44.3642C43.3949 1.06625 42.6493 1.3645 42.2019 2.3338L36.0879 16.2768H40.4125C40.4125 16.2768 41.1581 14.4128 41.3072 13.9654C41.7546 13.9654 46.0046 13.9654 46.6011 13.9654C46.7502 14.4874 47.123 16.2023 47.123 16.2023H51.0002L47.5704 1.06625ZM42.5002 10.8338C42.873 9.93909 44.1406 6.58382 44.1406 6.58382C44.1406 6.65838 44.5134 5.68908 44.6625 5.16715L44.9607 6.50926C44.9607 6.50926 45.7809 10.1628 45.93 10.9084H42.5002V10.8338Z" fill="#3362AB"/>
<path d="M36.3856 11.2808C36.3856 14.4124 33.5522 16.5001 29.1531 16.5001C27.2891 16.5001 25.4996 16.1273 24.5303 15.6799L25.1268 12.2501L25.6487 12.4738C26.9908 13.0702 27.8855 13.2939 29.5259 13.2939C30.7189 13.2939 31.9864 12.8466 31.9864 11.8027C31.9864 11.1316 31.4645 10.6843 29.8242 9.93866C28.2584 9.19304 26.1706 8.00005 26.1706 5.83777C26.1706 2.8553 29.0785 0.842133 33.1794 0.842133C34.7452 0.842133 36.0873 1.14038 36.9075 1.51319L36.311 4.7939L36.0128 4.49565C35.2672 4.19741 34.2979 3.89916 32.8812 3.89916C31.3154 3.97372 30.5698 4.64478 30.5698 5.24127C30.5698 5.91233 31.4645 6.43426 32.8812 7.10531C35.2672 8.22374 36.3856 9.49129 36.3856 11.2808Z" fill="#3362AB"/>
<path d="M0 1.21509L0.0745617 0.91684H6.48687C7.38161 0.91684 8.05266 1.21509 8.27635 2.18439L9.69302 8.89494C8.27635 5.31598 4.99563 2.40807 0 1.21509Z" fill="#F9B50B"/>
<path d="M18.7157 1.06611L12.2288 16.2021H7.82965L4.10156 3.52664C6.78578 5.24156 9.02263 7.92578 9.84281 9.78983L10.2902 11.3556L14.3165 0.991547H18.7157V1.06611Z" fill="#3362AB"/>
<path d="M20.429 0.991547H24.5299L21.9202 16.2021H17.8193L20.429 0.991547Z" fill="#3362AB"/>
</svg>
